<?xml version="1.0" encoding="utf-8" standalone="no"?>
<!DOCTYPE svg PUBLIC "-//W3C//DTD SVG 1.1//EN"
  "http://www.w3.org/Graphics/SVG/1.1/DTD/svg11.dtd">
<svg xmlns:xlink="http://www.w3.org/1999/xlink" width="314.628125pt" height="308.99625pt" viewBox="0 0 314.628125 308.99625" xmlns="http://www.w3.org/2000/svg" version="1.1">
 <metadata>
  <rdf:RDF xmlns:dc="http://purl.org/dc/elements/1.1/" xmlns:cc="http://creativecommons.org/ns#" xmlns:rdf="http://www.w3.org/1999/02/22-rdf-syntax-ns#">
   <cc:Work>
    <dc:type rdf:resource="http://purl.org/dc/dcmitype/StillImage"/>
    <dc:date>2024-08-13T13:56:09.030055</dc:date>
    <dc:format>image/svg+xml</dc:format>
    <dc:creator>
     <cc:Agent>
      <dc:title>Matplotlib v3.9.1, https://matplotlib.org/</dc:title>
     </cc:Agent>
    </dc:creator>
   </cc:Work>
  </rdf:RDF>
 </metadata>
 <defs>
  <style type="text/css">*{stroke-linejoin: round; stroke-linecap: butt}</style>
 </defs>
 <g id="figure_1">
  <g id="patch_1">
   <path d="M 0 308.99625 
L 314.628125 308.99625 
L 314.628125 0 
L 0 0 
z
" style="fill: #ffffff"/>
  </g>
  <g id="axes_1">
   <g id="patch_2">
    <path d="M 22.903125 141.118125 
L 301.903125 141.118125 
L 301.903125 15.118125 
L 22.903125 15.118125 
z
" style="fill: #ffffff"/>
   </g>
   <g id="matplotlib.axis_1">
    <g id="xtick_1">
     <g id="line2d_1">
      <defs>
       <path id="me7700822d3" d="M 0 0 
L 0 3.5 
" style="stroke: #000000; stroke-width: 0.8"/>
      </defs>
      <g>
       <use xlink:href="#me7700822d3" x="28.373713" y="141.118125" style="stroke: #000000; stroke-width: 0.8"/>
      </g>
     </g>
     <g id="text_1">
      <!-- 3000 -->
      <g transform="translate(15.648713 155.716563) scale(0.1 -0.1)">
       <defs>
        <path id="DejaVuSans-33" d="M 2597 2516 
Q 3050 2419 3304 2112 
Q 3559 1806 3559 1356 
Q 3559 666 3084 287 
Q 2609 -91 1734 -91 
Q 1441 -91 1130 -33 
Q 819 25 488 141 
L 488 750 
Q 750 597 1062 519 
Q 1375 441 1716 441 
Q 2309 441 2620 675 
Q 2931 909 2931 1356 
Q 2931 1769 2642 2001 
Q 2353 2234 1838 2234 
L 1294 2234 
L 1294 2753 
L 1863 2753 
Q 2328 2753 2575 2939 
Q 2822 3125 2822 3475 
Q 2822 3834 2567 4026 
Q 2313 4219 1838 4219 
Q 1578 4219 1281 4162 
Q 984 4106 628 3988 
L 628 4550 
Q 988 4650 1302 4700 
Q 1616 4750 1894 4750 
Q 2613 4750 3031 4423 
Q 3450 4097 3450 3541 
Q 3450 3153 3228 2886 
Q 3006 2619 2597 2516 
z
" transform="scale(0.015625)"/>
        <path id="DejaVuSans-30" d="M 2034 4250 
Q 1547 4250 1301 3770 
Q 1056 3291 1056 2328 
Q 1056 1369 1301 889 
Q 1547 409 2034 409 
Q 2525 409 2770 889 
Q 3016 1369 3016 2328 
Q 3016 3291 2770 3770 
Q 2525 4250 2034 4250 
z
M 2034 4750 
Q 2819 4750 3233 4129 
Q 3647 3509 3647 2328 
Q 3647 1150 3233 529 
Q 2819 -91 2034 -91 
Q 1250 -91 836 529 
Q 422 1150 422 2328 
Q 422 3509 836 4129 
Q 1250 4750 2034 4750 
z
" transform="scale(0.015625)"/>
       </defs>
       <use xlink:href="#DejaVuSans-33"/>
       <use xlink:href="#DejaVuSans-30" x="63.623047"/>
       <use xlink:href="#DejaVuSans-30" x="127.246094"/>
       <use xlink:href="#DejaVuSans-30" x="190.869141"/>
      </g>
     </g>
    </g>
    <g id="xtick_2">
     <g id="line2d_2">
      <g>
       <use xlink:href="#me7700822d3" x="83.079596" y="141.118125" style="stroke: #000000; stroke-width: 0.8"/>
      </g>
     </g>
     <g id="text_2">
      <!-- 3100 -->
      <g transform="translate(70.354596 155.716563) scale(0.1 -0.1)">
       <defs>
        <path id="DejaVuSans-31" d="M 794 531 
L 1825 531 
L 1825 4091 
L 703 3866 
L 703 4441 
L 1819 4666 
L 2450 4666 
L 2450 531 
L 3481 531 
L 3481 0 
L 794 0 
L 794 531 
z
" transform="scale(0.015625)"/>
       </defs>
       <use xlink:href="#DejaVuSans-33"/>
       <use xlink:href="#DejaVuSans-31" x="63.623047"/>
       <use xlink:href="#DejaVuSans-30" x="127.246094"/>
       <use xlink:href="#DejaVuSans-30" x="190.869141"/>
      </g>
     </g>
    </g>
    <g id="xtick_3">
     <g id="line2d_3">
      <g>
       <use xlink:href="#me7700822d3" x="137.785478" y="141.118125" style="stroke: #000000; stroke-width: 0.8"/>
      </g>
     </g>
     <g id="text_3">
      <!-- 3200 -->
      <g transform="translate(125.060478 155.716563) scale(0.1 -0.1)">
       <defs>
        <path id="DejaVuSans-32" d="M 1228 531 
L 3431 531 
L 3431 0 
L 469 0 
L 469 531 
Q 828 903 1448 1529 
Q 2069 2156 2228 2338 
Q 2531 2678 2651 2914 
Q 2772 3150 2772 3378 
Q 2772 3750 2511 3984 
Q 2250 4219 1831 4219 
Q 1534 4219 1204 4116 
Q 875 4013 500 3803 
L 500 4441 
Q 881 4594 1212 4672 
Q 1544 4750 1819 4750 
Q 2544 4750 2975 4387 
Q 3406 4025 3406 3419 
Q 3406 3131 3298 2873 
Q 3191 2616 2906 2266 
Q 2828 2175 2409 1742 
Q 1991 1309 1228 531 
z
" transform="scale(0.015625)"/>
       </defs>
       <use xlink:href="#DejaVuSans-33"/>
       <use xlink:href="#DejaVuSans-32" x="63.623047"/>
       <use xlink:href="#DejaVuSans-30" x="127.246094"/>
       <use xlink:href="#DejaVuSans-30" x="190.869141"/>
      </g>
     </g>
    </g>
    <g id="xtick_4">
     <g id="line2d_4">
      <g>
       <use xlink:href="#me7700822d3" x="192.49136" y="141.118125" style="stroke: #000000; stroke-width: 0.8"/>
      </g>
     </g>
     <g id="text_4">
      <!-- 3300 -->
      <g transform="translate(179.76636 155.716563) scale(0.1 -0.1)">
       <use xlink:href="#DejaVuSans-33"/>
       <use xlink:href="#DejaVuSans-33" x="63.623047"/>
       <use xlink:href="#DejaVuSans-30" x="127.246094"/>
       <use xlink:href="#DejaVuSans-30" x="190.869141"/>
      </g>
     </g>
    </g>
    <g id="xtick_5">
     <g id="line2d_5">
      <g>
       <use xlink:href="#me7700822d3" x="247.197243" y="141.118125" style="stroke: #000000; stroke-width: 0.8"/>
      </g>
     </g>
     <g id="text_5">
      <!-- 3400 -->
      <g transform="translate(234.472243 155.716563) scale(0.1 -0.1)">
       <defs>
        <path id="DejaVuSans-34" d="M 2419 4116 
L 825 1625 
L 2419 1625 
L 2419 4116 
z
M 2253 4666 
L 3047 4666 
L 3047 1625 
L 3713 1625 
L 3713 1100 
L 3047 1100 
L 3047 0 
L 2419 0 
L 2419 1100 
L 313 1100 
L 313 1709 
L 2253 4666 
z
" transform="scale(0.015625)"/>
       </defs>
       <use xlink:href="#DejaVuSans-33"/>
       <use xlink:href="#DejaVuSans-34" x="63.623047"/>
       <use xlink:href="#DejaVuSans-30" x="127.246094"/>
       <use xlink:href="#DejaVuSans-30" x="190.869141"/>
      </g>
     </g>
    </g>
    <g id="xtick_6">
     <g id="line2d_6">
      <g>
       <use xlink:href="#me7700822d3" x="301.903125" y="141.118125" style="stroke: #000000; stroke-width: 0.8"/>
      </g>
     </g>
     <g id="text_6">
      <!-- 3500 -->
      <g transform="translate(289.178125 155.716563) scale(0.1 -0.1)">
       <defs>
        <path id="DejaVuSans-35" d="M 691 4666 
L 3169 4666 
L 3169 4134 
L 1269 4134 
L 1269 2991 
Q 1406 3038 1543 3061 
Q 1681 3084 1819 3084 
Q 2600 3084 3056 2656 
Q 3513 2228 3513 1497 
Q 3513 744 3044 326 
Q 2575 -91 1722 -91 
Q 1428 -91 1123 -41 
Q 819 9 494 109 
L 494 744 
Q 775 591 1075 516 
Q 1375 441 1709 441 
Q 2250 441 2565 725 
Q 2881 1009 2881 1497 
Q 2881 1984 2565 2268 
Q 2250 2553 1709 2553 
Q 1456 2553 1204 2497 
Q 953 2441 691 2322 
L 691 4666 
z
" transform="scale(0.015625)"/>
       </defs>
       <use xlink:href="#DejaVuSans-33"/>
       <use xlink:href="#DejaVuSans-35" x="63.623047"/>
       <use xlink:href="#DejaVuSans-30" x="127.246094"/>
       <use xlink:href="#DejaVuSans-30" x="190.869141"/>
      </g>
     </g>
    </g>
   </g>
   <g id="matplotlib.axis_2">
    <g id="ytick_1">
     <g id="line2d_7">
      <defs>
       <path id="m9354780acd" d="M 0 0 
L -3.5 0 
" style="stroke: #000000; stroke-width: 0.8"/>
      </defs>
      <g>
       <use xlink:href="#m9354780acd" x="22.903125" y="140.109725" style="stroke: #000000; stroke-width: 0.8"/>
      </g>
     </g>
     <g id="text_7">
      <!-- 0.0 -->
      <g transform="translate(0 143.908944) scale(0.1 -0.1)">
       <defs>
        <path id="DejaVuSans-2e" d="M 684 794 
L 1344 794 
L 1344 0 
L 684 0 
L 684 794 
z
" transform="scale(0.015625)"/>
       </defs>
       <use xlink:href="#DejaVuSans-30"/>
       <use xlink:href="#DejaVuSans-2e" x="63.623047"/>
       <use xlink:href="#DejaVuSans-30" x="95.410156"/>
      </g>
     </g>
    </g>
    <g id="ytick_2">
     <g id="line2d_8">
      <g>
       <use xlink:href="#m9354780acd" x="22.903125" y="99.217134" style="stroke: #000000; stroke-width: 0.8"/>
      </g>
     </g>
     <g id="text_8">
      <!-- 0.5 -->
      <g transform="translate(0 103.016353) scale(0.1 -0.1)">
       <use xlink:href="#DejaVuSans-30"/>
       <use xlink:href="#DejaVuSans-2e" x="63.623047"/>
       <use xlink:href="#DejaVuSans-35" x="95.410156"/>
      </g>
     </g>
    </g>
    <g id="ytick_3">
     <g id="line2d_9">
      <g>
       <use xlink:href="#m9354780acd" x="22.903125" y="58.324543" style="stroke: #000000; stroke-width: 0.8"/>
      </g>
     </g>
     <g id="text_9">
      <!-- 1.0 -->
      <g transform="translate(0 62.123762) scale(0.1 -0.1)">
       <use xlink:href="#DejaVuSans-31"/>
       <use xlink:href="#DejaVuSans-2e" x="63.623047"/>
       <use xlink:href="#DejaVuSans-30" x="95.410156"/>
      </g>
     </g>
    </g>
    <g id="ytick_4">
     <g id="line2d_10">
      <g>
       <use xlink:href="#m9354780acd" x="22.903125" y="17.431952" style="stroke: #000000; stroke-width: 0.8"/>
      </g>
     </g>
     <g id="text_10">
      <!-- 1.5 -->
      <g transform="translate(0 21.231171) scale(0.1 -0.1)">
       <use xlink:href="#DejaVuSans-31"/>
       <use xlink:href="#DejaVuSans-2e" x="63.623047"/>
       <use xlink:href="#DejaVuSans-35" x="95.410156"/>
      </g>
     </g>
    </g>
   </g>
   <g id="line2d_11">
    <path d="M 22.356066 115.421214 
L 25.09136 115.773234 
L 25.638419 115.683623 
L 26.732537 115.175793 
L 27.279596 114.764518 
L 28.373713 114.272536 
L 29.467831 114.698804 
L 30.561949 115.638232 
L 31.656066 116.284581 
L 32.750184 116.535466 
L 33.844301 116.546585 
L 35.485478 116.290409 
L 37.126654 115.806741 
L 38.767831 115.299493 
L 39.861949 115.220356 
L 42.050184 115.657268 
L 43.69136 115.970901 
L 46.426654 116.240374 
L 48.61489 116.231173 
L 51.897243 116.173614 
L 54.085478 116.321224 
L 55.179596 116.173663 
L 55.726654 115.95623 
L 56.273713 115.569193 
L 56.820772 115.045883 
L 57.91489 113.797297 
L 58.461949 113.449693 
L 59.009007 113.70258 
L 59.556066 114.261994 
L 60.103125 115.079687 
L 61.197243 116.184526 
L 62.29136 116.620021 
L 63.385478 116.71748 
L 65.026654 116.579373 
L 67.21489 116.037278 
L 68.856066 115.684025 
L 69.950184 115.617821 
L 73.779596 115.540875 
L 74.873713 115.655786 
L 77.061949 115.864875 
L 77.609007 115.752163 
L 78.703125 115.154115 
L 79.797243 114.208742 
L 80.344301 113.87726 
L 80.89136 113.860215 
L 81.438419 114.215301 
L 83.626654 116.335508 
L 84.720772 116.689731 
L 85.81489 116.627641 
L 86.909007 116.135325 
L 89.097243 114.379818 
L 89.644301 114.386708 
L 90.19136 114.739074 
L 91.285478 115.737777 
L 91.832537 116.104682 
L 92.379596 116.337648 
L 93.473713 116.446989 
L 95.11489 116.118158 
L 96.756066 115.810099 
L 97.850184 115.895498 
L 100.585478 116.512801 
L 101.679596 116.539371 
L 103.320772 116.294484 
L 105.509007 115.953374 
L 107.150184 116.202433 
L 109.885478 116.694954 
L 110.979596 116.542959 
L 112.073713 115.968927 
L 113.71489 114.385487 
L 114.261949 114.201101 
L 114.809007 114.233048 
L 116.997243 116.479311 
L 118.09136 117.025986 
L 119.185478 117.235486 
L 120.826654 117.294537 
L 122.467831 117.186307 
L 124.109007 116.852575 
L 125.203125 116.432479 
L 127.938419 115.05388 
L 129.032537 114.923234 
L 133.409007 115.818808 
L 133.956066 116.026193 
L 137.238419 116.460175 
L 139.426654 116.185723 
L 141.067831 115.905971 
L 142.161949 115.924798 
L 144.350184 116.434444 
L 145.444301 116.656477 
L 146.538419 116.756576 
L 147.632537 116.725109 
L 148.726654 116.559187 
L 150.367831 116.115416 
L 151.461949 115.791112 
L 152.556066 115.640669 
L 153.650184 115.737068 
L 158.026654 116.465584 
L 159.667831 116.406077 
L 164.044301 115.936385 
L 166.779596 116.176107 
L 170.061949 116.358156 
L 173.344301 116.777387 
L 174.438419 116.723886 
L 175.532537 116.478385 
L 178.267831 115.5984 
L 179.361949 115.774238 
L 181.003125 116.364008 
L 182.097243 116.485836 
L 183.19136 116.288873 
L 185.926654 115.258711 
L 186.473713 115.304397 
L 187.567831 115.740921 
L 188.661949 116.275533 
L 189.756066 116.576936 
L 190.850184 116.582066 
L 191.944301 116.331839 
L 194.679596 115.461857 
L 196.867831 115.569863 
L 197.41489 115.591948 
L 199.056066 115.280896 
L 200.150184 115.293417 
L 201.244301 115.676274 
L 202.885478 116.414923 
L 203.979596 116.651054 
L 205.620772 116.551611 
L 208.356066 116.173275 
L 209.450184 116.314173 
L 212.185478 116.922175 
L 213.279596 116.927003 
L 214.373713 116.691861 
L 215.467831 116.204208 
L 216.561949 115.645054 
L 217.109007 115.492086 
L 217.656066 115.467103 
L 218.750184 115.900975 
L 220.39136 116.858325 
L 221.485478 117.2375 
L 223.126654 117.469232 
L 224.767831 117.480417 
L 226.409007 117.311243 
L 228.050184 116.925224 
L 230.238419 116.343039 
L 231.332537 116.302622 
L 232.973713 116.284135 
L 233.520772 116.075514 
L 234.067831 115.637174 
L 235.161949 114.019835 
L 235.709007 112.999581 
L 236.256066 112.62793 
L 236.803125 112.749761 
L 238.444301 115.762946 
L 238.99136 116.380621 
L 239.538419 116.695641 
L 240.085478 116.874161 
L 241.179596 116.902734 
L 244.461949 116.554487 
L 246.103125 116.838692 
L 248.838419 117.42075 
L 250.479596 117.503297 
L 252.120772 117.362433 
L 253.761949 116.888139 
L 256.497243 115.929775 
L 257.044301 115.909189 
L 258.685478 116.351621 
L 259.779596 116.602012 
L 260.873713 116.663653 
L 264.703125 116.694835 
L 267.438419 117.167359 
L 269.079596 117.146641 
L 270.173713 116.91592 
L 271.267831 116.41726 
L 273.456066 114.980305 
L 274.003125 114.823547 
L 275.097243 115.343885 
L 276.19136 116.178025 
L 276.738419 116.511273 
L 277.832537 116.839871 
L 278.926654 116.897216 
L 280.567831 116.699809 
L 283.850184 116.043791 
L 284.944301 116.063271 
L 288.773713 116.376426 
L 290.961949 116.277195 
L 292.056066 116.413938 
L 295.885478 117.202699 
L 296.979596 117.125948 
L 297.526654 116.990926 
L 298.620772 116.386481 
L 300.809007 114.592256 
L 301.356066 114.63616 
L 301.903125 114.99637 
L 302.450184 115.515139 
L 302.450184 115.515139 
" clip-path="url(#p882eede505)" style="fill: none; stroke: #1f77b4; stroke-width: 1.5; stroke-linecap: square"/>
   </g>
   <g id="line2d_12">
    <path d="M 28.373713 114.272536 
L 28.920772 93.328107 
L 29.467831 36.823492 
L 30.01489 96.673622 
L 31.109007 28.771385 
L 31.656066 73.530093 
L 32.203125 31.343649 
L 32.750184 49.383082 
L 33.297243 20.845398 
L 33.844301 63.155315 
L 34.39136 57.072028 
L 34.938419 68.592973 
L 35.485478 74.133205 
L 36.032537 76.966742 
L 36.579596 106.281588 
L 37.126654 105.447075 
L 37.673713 96.422425 
L 38.220772 83.923122 
L 38.767831 93.102687 
L 39.31489 106.736736 
L 39.861949 104.062226 
L 40.409007 95.446597 
L 40.956066 91.705201 
L 41.503125 103.048034 
L 42.050184 102.655349 
L 42.597243 96.05979 
L 43.144301 98.481311 
L 43.69136 108.493547 
L 44.238419 110.993542 
L 45.332537 111.297626 
L 49.709007 111.929521 
L 56.820772 112.725804 
L 66.667831 113.586004 
L 79.250184 114.44067 
L 95.11489 115.281074 
L 101.679596 115.524525 
L 102.226654 115.466272 
L 102.773713 115.25922 
L 103.320772 114.639748 
L 103.867831 112.96829 
L 104.961949 105.125934 
L 105.509007 106.928904 
L 106.056066 112.641743 
L 106.603125 115.066932 
L 107.150184 115.380327 
L 108.244301 115.344968 
L 108.79136 115.076362 
L 109.338419 114.262324 
L 109.885478 112.310824 
L 110.432537 108.405523 
L 110.979596 106.472903 
L 111.526654 109.5705 
L 112.073713 114.101758 
L 112.620772 115.100627 
L 113.167831 115.13564 
L 113.71489 114.911483 
L 114.261949 114.429258 
L 114.809007 113.4904 
L 115.903125 111.193313 
L 116.450184 111.683045 
L 117.544301 114.453676 
L 118.09136 115.081764 
L 118.638419 115.330241 
L 119.732537 115.467649 
L 122.467831 115.486017 
L 126.297243 115.471977 
L 137.785478 116.112118 
L 139.973713 115.987051 
L 141.067831 115.729829 
L 141.61489 115.466998 
L 142.161949 115.075283 
L 143.256066 113.744149 
L 143.803125 113.081709 
L 144.350184 112.719566 
L 145.444301 113.801657 
L 145.99136 114.472787 
L 146.538419 114.815662 
L 147.632537 115.02722 
L 150.367831 114.959343 
L 152.009007 114.826165 
L 154.197243 114.227164 
L 154.744301 113.954576 
L 155.838419 113.897339 
L 156.932537 114.528023 
L 158.026654 115.333351 
L 159.120772 115.751704 
L 159.667831 115.725008 
L 160.21489 115.445824 
L 160.761949 114.643404 
L 161.309007 113.168689 
L 161.856066 110.876474 
L 162.403125 110.349082 
L 162.950184 111.864718 
L 163.497243 114.301807 
L 164.044301 115.288523 
L 164.59136 115.41155 
L 165.138419 115.262043 
L 166.232537 114.521055 
L 167.326654 113.835595 
L 167.873713 113.916607 
L 168.420772 114.235914 
L 169.51489 115.123475 
L 170.609007 115.508719 
L 171.703125 115.53087 
L 173.344301 115.375747 
L 174.985478 114.968681 
L 175.532537 114.752175 
L 176.626654 114.176701 
L 177.173713 113.988671 
L 178.267831 114.194474 
L 179.361949 114.438159 
L 181.003125 114.580122 
L 182.644301 114.61556 
L 184.285478 114.277101 
L 185.379596 114.508817 
L 186.473713 114.768669 
L 187.020772 114.638132 
L 188.661949 113.477716 
L 189.209007 113.524129 
L 190.303125 114.641033 
L 190.850184 115.195419 
L 191.944301 115.829806 
L 193.585478 116.252103 
L 195.226654 116.424433 
L 196.867831 116.3329 
L 197.961949 115.999153 
L 199.056066 115.349886 
L 200.150184 114.813522 
L 201.244301 115.122068 
L 201.79136 115.395151 
L 202.338419 115.526385 
L 202.885478 115.383269 
L 203.432537 115.026277 
L 204.526654 113.947596 
L 205.073713 113.943718 
L 205.620772 114.424295 
L 206.167831 115.231361 
L 206.71489 115.82565 
L 207.261949 116.176068 
L 207.809007 116.303778 
L 208.356066 116.257696 
L 208.903125 116.001176 
L 209.450184 115.449505 
L 209.997243 114.389838 
L 211.09136 111.685297 
L 211.638419 112.153485 
L 212.732537 115.032251 
L 213.279596 115.493227 
L 213.826654 115.479224 
L 214.373713 115.199024 
L 214.920772 114.758208 
L 216.561949 112.561802 
L 217.109007 112.440032 
L 218.750184 115.369402 
L 219.297243 115.805851 
L 219.844301 116.002465 
L 220.39136 116.078646 
L 220.938419 116.017375 
L 221.485478 115.810053 
L 222.032537 115.390001 
L 223.126654 114.045357 
L 223.673713 113.702139 
L 224.220772 113.944105 
L 224.767831 114.670849 
L 225.31489 115.182684 
L 225.861949 115.327245 
L 226.409007 115.09612 
L 228.050184 113.997384 
L 228.597243 114.01526 
L 229.144301 114.410041 
L 230.238419 114.850651 
L 231.879596 114.636794 
L 232.973713 114.840199 
L 234.067831 115.175959 
L 234.61489 115.190057 
L 235.161949 114.898041 
L 236.256066 113.713892 
L 236.803125 113.12175 
L 237.350184 113.368282 
L 237.897243 113.963385 
L 238.444301 114.776676 
L 238.99136 115.239502 
L 240.085478 115.480079 
L 241.179596 115.409268 
L 242.273713 115.464431 
L 244.461949 115.873388 
L 246.103125 115.972702 
L 247.744301 116.09105 
L 252.120772 116.647998 
L 253.21489 116.479274 
L 254.309007 116.049994 
L 255.403125 115.486392 
L 255.950184 115.339457 
L 256.497243 115.415723 
L 257.59136 116.002382 
L 258.685478 116.464558 
L 259.779596 116.477807 
L 260.326654 116.297638 
L 260.873713 115.949162 
L 261.420772 115.440172 
L 262.51489 114.038016 
L 263.061949 113.406483 
L 264.156066 113.549297 
L 264.703125 113.811224 
L 265.797243 114.097268 
L 266.89136 114.665265 
L 267.438419 114.70499 
L 267.985478 114.49088 
L 268.532537 113.879407 
L 269.079596 113.475418 
L 269.626654 113.333871 
L 270.720772 114.21106 
L 271.267831 114.355454 
L 272.361949 114.361289 
L 272.909007 114.670372 
L 274.003125 115.707978 
L 274.550184 116.089329 
L 275.097243 116.230948 
L 275.644301 116.230524 
L 276.19136 116.022425 
L 277.285478 115.176956 
L 277.832537 114.716065 
L 278.379596 114.63246 
L 278.926654 114.895016 
L 279.473713 115.462747 
L 280.020772 115.863346 
L 280.567831 115.963511 
L 281.11489 115.694067 
L 281.661949 115.047952 
L 282.209007 114.223186 
L 282.756066 113.673879 
L 283.303125 113.971404 
L 284.397243 115.907914 
L 284.944301 116.431173 
L 285.49136 116.613448 
L 286.038419 116.477966 
L 286.585478 116.067029 
L 287.132537 115.110276 
L 288.226654 111.94622 
L 288.773713 111.517549 
L 289.867831 115.022681 
L 290.41489 115.989298 
L 290.961949 116.181674 
L 291.509007 116.137657 
L 292.603125 115.911629 
L 293.150184 115.863371 
L 296.432537 116.652083 
L 297.526654 116.558777 
L 298.620772 116.241939 
L 300.261949 115.719155 
L 300.809007 115.630278 
L 302.450184 116.021421 
L 302.450184 116.021421 
" clip-path="url(#p882eede505)" style="fill: none; stroke: #ff0000; stroke-width: 1.5; stroke-linecap: square"/>
   </g>
   <g id="line2d_13">
    <path d="M 28.373713 114.272536 
L 28.920772 114.109234 
L 29.467831 113.669928 
L 30.01489 114.986506 
L 31.109007 116.350059 
L 32.203125 116.736346 
L 33.297243 116.711748 
L 34.938419 116.393013 
L 37.673713 115.660646 
L 39.861949 115.591544 
L 45.879596 115.968622 
L 47.520772 115.840606 
L 48.067831 115.705816 
L 49.161949 114.981014 
L 49.709007 114.498787 
L 50.256066 114.308773 
L 50.803125 114.517499 
L 52.444301 116.182795 
L 52.99136 116.473359 
L 54.085478 116.690786 
L 55.179596 116.538774 
L 56.273713 115.981613 
L 57.367831 115.158037 
L 57.91489 114.865853 
L 59.009007 114.9982 
L 59.556066 115.283548 
L 60.650184 115.340532 
L 61.197243 115.151775 
L 62.29136 115.039768 
L 63.932537 115.85669 
L 65.026654 115.968325 
L 66.120772 115.321076 
L 66.667831 114.841072 
L 67.21489 114.651375 
L 67.761949 114.7705 
L 69.403125 116.01902 
L 69.950184 116.05105 
L 70.497243 115.707758 
L 71.044301 115.025382 
L 71.59136 114.032078 
L 72.138419 113.381442 
L 72.685478 113.349136 
L 73.779596 115.392194 
L 74.326654 116.113481 
L 74.873713 116.439304 
L 75.967831 116.506732 
L 77.609007 116.160272 
L 78.156066 116.162455 
L 78.703125 116.023887 
L 79.250184 116.090923 
L 79.797243 115.965059 
L 80.344301 116.028926 
L 80.89136 115.891915 
L 81.438419 115.934413 
L 81.985478 115.853541 
L 84.173713 116.324252 
L 85.267831 116.666873 
L 86.361949 116.923486 
L 87.456066 117.028135 
L 88.550184 116.923152 
L 89.097243 116.774798 
L 90.19136 116.147699 
L 91.285478 115.347817 
L 91.832537 115.229604 
L 92.379596 115.291925 
L 94.020772 116.371454 
L 95.11489 116.638104 
L 96.756066 116.603754 
L 99.49136 116.363238 
L 100.038419 116.214313 
L 101.679596 115.335869 
L 102.773713 115.580578 
L 103.867831 116.465593 
L 104.961949 117.090047 
L 106.056066 117.356817 
L 107.697243 117.431357 
L 109.338419 117.276832 
L 111.526654 116.68187 
L 112.620772 116.393357 
L 113.167831 116.266135 
L 114.261949 116.156345 
L 114.809007 116.09941 
L 116.997243 115.286034 
L 117.544301 115.325169 
L 118.09136 115.51265 
L 119.185478 116.286265 
L 119.732537 116.646075 
L 120.826654 116.919206 
L 121.920772 116.805451 
L 123.561949 116.267529 
L 125.203125 116.524727 
L 127.39136 117.027409 
L 129.579596 116.960149 
L 132.31489 116.490011 
L 133.409007 115.864334 
L 133.956066 115.481651 
L 134.503125 115.259423 
L 135.050184 115.212671 
L 136.69136 116.230812 
L 137.785478 116.196518 
L 138.332537 115.886767 
L 138.879596 115.216761 
L 139.973713 115.116055 
L 140.520772 115.777775 
L 141.61489 116.611542 
L 142.161949 116.661535 
L 142.709007 116.460087 
L 143.256066 115.919107 
L 144.350184 114.394501 
L 144.897243 114.03462 
L 145.444301 114.417673 
L 146.538419 115.742666 
L 147.085478 115.975652 
L 147.632537 115.959967 
L 148.726654 115.632696 
L 149.273713 115.697911 
L 149.820772 115.920752 
L 150.91489 116.710049 
L 151.461949 117.039859 
L 152.556066 117.369433 
L 153.650184 117.424947 
L 154.744301 117.268735 
L 155.838419 116.843874 
L 158.026654 115.464551 
L 158.573713 115.489573 
L 159.120772 115.667429 
L 160.761949 116.500285 
L 161.309007 116.638412 
L 162.403125 116.611125 
L 164.044301 116.369899 
L 165.138419 116.455288 
L 168.420772 117.097162 
L 169.51489 117.041514 
L 170.061949 116.938461 
L 171.156066 116.383824 
L 172.250184 115.646806 
L 172.797243 115.519 
L 173.344301 115.67247 
L 175.532537 117.210657 
L 176.079596 117.364312 
L 177.173713 117.384523 
L 178.81489 116.925707 
L 179.909007 116.611505 
L 181.003125 116.677885 
L 182.644301 117.329869 
L 183.738419 117.548674 
L 184.832537 117.453723 
L 185.926654 116.958404 
L 187.567831 115.884096 
L 188.11489 115.890175 
L 188.661949 116.11916 
L 189.756066 116.795306 
L 190.850184 117.0405 
L 192.49136 116.851807 
L 193.038419 116.728039 
L 193.585478 116.385706 
L 194.132537 116.427602 
L 194.679596 116.313249 
L 195.226654 116.568203 
L 195.773713 116.671865 
L 196.320772 116.917317 
L 197.41489 117.075618 
L 199.056066 116.828199 
L 200.150184 116.622632 
L 201.244301 116.533077 
L 202.885478 116.403452 
L 203.432537 116.302766 
L 204.526654 116.384787 
L 205.620772 116.858025 
L 207.261949 117.624672 
L 208.356066 117.840463 
L 209.450184 117.821883 
L 210.544301 117.565589 
L 212.185478 116.776831 
L 213.279596 116.402238 
L 214.373713 116.456495 
L 215.467831 116.538196 
L 216.561949 116.286782 
L 217.656066 115.830715 
L 218.203125 115.693324 
L 218.750184 115.739883 
L 220.938419 116.55469 
L 221.485478 116.5722 
L 223.126654 116.333882 
L 224.767831 116.48605 
L 226.409007 116.758231 
L 227.503125 116.987767 
L 230.785478 117.807283 
L 231.879596 117.715108 
L 232.426654 117.568597 
L 233.520772 116.952116 
L 234.067831 116.509264 
L 235.161949 116.189491 
L 236.256066 116.692375 
L 237.350184 117.107857 
L 238.444301 117.002611 
L 238.99136 116.72938 
L 239.538419 116.652661 
L 240.085478 116.393266 
L 240.632537 116.511338 
L 241.179596 116.458116 
L 241.726654 116.624372 
L 244.461949 116.644929 
L 245.556066 117.072264 
L 246.650184 117.519903 
L 247.744301 117.690079 
L 248.838419 117.464111 
L 250.479596 116.746705 
L 251.573713 116.731335 
L 254.309007 117.939458 
L 255.403125 117.905115 
L 255.950184 117.704857 
L 256.497243 117.350736 
L 258.685478 115.50878 
L 259.232537 115.789406 
L 260.873713 117.073537 
L 261.967831 117.282589 
L 263.061949 117.314034 
L 264.156066 117.505512 
L 266.344301 117.990134 
L 267.438419 117.975234 
L 268.532537 117.700111 
L 269.626654 117.149186 
L 270.720772 116.54172 
L 271.267831 116.349028 
L 272.361949 116.39694 
L 277.285478 118.132292 
L 278.379596 118.23464 
L 279.473713 118.15075 
L 280.567831 117.827847 
L 283.303125 116.433622 
L 285.49136 116.366323 
L 286.038419 116.595733 
L 286.585478 116.678433 
L 287.132537 116.953015 
L 289.320772 117.262702 
L 290.961949 116.855064 
L 292.056066 116.614028 
L 292.603125 116.637273 
L 295.338419 117.469507 
L 298.073713 117.184472 
L 299.71489 117.571205 
L 301.356066 118.026434 
L 302.450184 117.955569 
L 302.450184 117.955569 
" clip-path="url(#p882eede505)" style="fill: none; stroke: #ffff00; stroke-width: 1.5; stroke-linecap: square"/>
   </g>
   <g id="line2d_14">
    <path d="M 28.373713 114.272536 
L 29.467831 114.873679 
L 30.01489 115.314359 
L 31.656066 116.952274 
L 32.750184 117.132158 
L 36.579596 117.316201 
L 42.597243 117.428754 
L 43.69136 117.336528 
L 44.238419 117.191867 
L 44.785478 116.88235 
L 45.332537 116.26923 
L 45.879596 115.062898 
L 46.426654 113.114786 
L 46.973713 110.30995 
L 47.520772 108.644587 
L 48.067831 109.016194 
L 48.61489 112.291754 
L 49.161949 114.793935 
L 49.709007 116.252929 
L 50.256066 116.85052 
L 50.803125 117.132733 
L 51.897243 117.353476 
L 54.632537 117.516512 
L 64.479596 117.736309 
L 71.044301 117.76575 
L 72.685478 117.635496 
L 73.779596 117.3964 
L 74.873713 116.910051 
L 77.609007 115.010241 
L 78.703125 115.447672 
L 79.797243 116.393101 
L 80.344301 116.822354 
L 81.438419 117.333518 
L 83.079596 117.671901 
L 84.720772 117.817991 
L 87.456066 117.771237 
L 89.644301 117.555189 
L 92.926654 117.089675 
L 94.020772 117.135627 
L 96.209007 117.545715 
L 98.397243 117.882369 
L 101.679596 118.084994 
L 106.603125 118.154662 
L 108.79136 118.0408 
L 109.885478 117.849879 
L 110.979596 117.471457 
L 113.167831 116.341945 
L 113.71489 116.252914 
L 114.809007 116.702417 
L 115.903125 117.420881 
L 116.997243 117.892092 
L 118.09136 118.113794 
L 120.279596 118.245625 
L 123.561949 118.194721 
L 126.297243 117.946597 
L 129.579596 117.540633 
L 131.220772 117.56487 
L 133.956066 117.760851 
L 135.597243 117.651395 
L 136.69136 117.414715 
L 139.426654 116.568775 
L 140.520772 116.667365 
L 142.161949 117.372984 
L 143.803125 117.9532 
L 145.444301 118.238538 
L 148.179596 118.411136 
L 150.91489 118.385076 
L 153.103125 118.13947 
L 156.932537 117.430278 
L 158.026654 117.605475 
L 160.761949 118.286405 
L 162.403125 118.411246 
L 164.044301 118.296399 
L 165.685478 117.896467 
L 167.873713 117.153934 
L 168.420772 117.088926 
L 169.51489 117.251941 
L 171.703125 117.881623 
L 173.344301 118.101512 
L 176.079596 118.196378 
L 177.720772 118.068479 
L 178.81489 117.790614 
L 180.456066 117.032345 
L 181.003125 116.790607 
L 181.550184 116.684744 
L 182.097243 116.729765 
L 183.19136 117.263421 
L 184.285478 117.8582 
L 185.379596 118.147394 
L 186.473713 118.111247 
L 187.567831 117.765821 
L 189.756066 116.676028 
L 190.303125 116.681546 
L 190.850184 116.859834 
L 193.038419 118.075435 
L 194.132537 118.268832 
L 195.226654 118.218819 
L 196.867831 117.85919 
L 199.056066 117.316035 
L 200.150184 117.312647 
L 204.526654 117.923834 
L 209.450184 118.292336 
L 212.732537 118.608094 
L 214.373713 118.592827 
L 216.01489 118.374168 
L 219.297243 117.650817 
L 220.39136 117.775941 
L 223.126654 118.493386 
L 224.220772 118.573444 
L 225.31489 118.48679 
L 226.409007 118.219265 
L 228.597243 117.460977 
L 229.144301 117.419061 
L 230.238419 117.713882 
L 231.879596 118.431235 
L 232.973713 118.694488 
L 234.067831 118.768204 
L 235.709007 118.592215 
L 237.350184 118.082969 
L 238.99136 117.535907 
L 240.085478 117.552674 
L 241.726654 118.106102 
L 242.820772 118.414566 
L 243.91489 118.544915 
L 245.556066 118.469319 
L 247.197243 118.113465 
L 250.479596 117.171568 
L 251.573713 117.200739 
L 253.21489 117.720295 
L 255.403125 118.495982 
L 257.044301 118.815938 
L 258.685478 118.931124 
L 260.873713 118.812235 
L 263.061949 118.406215 
L 264.703125 118.094198 
L 271.81489 117.631379 
L 276.19136 118.552312 
L 277.285478 118.546555 
L 278.379596 118.368558 
L 281.11489 117.569679 
L 281.661949 117.601955 
L 282.756066 117.980157 
L 284.397243 118.591159 
L 285.49136 118.720504 
L 287.132537 118.629005 
L 288.773713 118.540598 
L 290.961949 118.840541 
L 292.603125 119.077674 
L 294.244301 119.057695 
L 295.338419 118.843383 
L 296.432537 118.401431 
L 299.167831 116.953027 
L 299.71489 116.999123 
L 300.809007 117.49451 
L 302.450184 118.306558 
L 302.450184 118.306558 
" clip-path="url(#p882eede505)" style="fill: none; stroke: #008000; stroke-width: 1.5; stroke-linecap: square"/>
   </g>
   <g id="line2d_15">
    <path d="M 28.373713 141.118125 
L 28.373713 15.118125 
" clip-path="url(#p882eede505)" style="fill: none; stroke-dasharray: 1.5,2.475; stroke-dashoffset: 0; stroke: #1f77b4; stroke-width: 1.5"/>
   </g>
   <g id="patch_3">
    <path d="M 22.903125 141.118125 
L 22.903125 15.118125 
" style="fill: none; stroke: #000000; stroke-width: 0.8; stroke-linejoin: miter; stroke-linecap: square"/>
   </g>
   <g id="patch_4">
    <path d="M 301.903125 141.118125 
L 301.903125 15.118125 
" style="fill: none; stroke: #000000; stroke-width: 0.8; stroke-linejoin: miter; stroke-linecap: square"/>
   </g>
   <g id="patch_5">
    <path d="M 22.903125 141.118125 
L 301.903125 141.118125 
" style="fill: none; stroke: #000000; stroke-width: 0.8; stroke-linejoin: miter; stroke-linecap: square"/>
   </g>
   <g id="patch_6">
    <path d="M 22.903125 15.118125 
L 301.903125 15.118125 
" style="fill: none; stroke: #000000; stroke-width: 0.8; stroke-linejoin: miter; stroke-linecap: square"/>
   </g>
   <g id="text_11">
    <!-- train loss -->
    <g transform="translate(134.941875 9.118125) scale(0.12 -0.12)">
     <defs>
      <path id="DejaVuSans-74" d="M 1172 4494 
L 1172 3500 
L 2356 3500 
L 2356 3053 
L 1172 3053 
L 1172 1153 
Q 1172 725 1289 603 
Q 1406 481 1766 481 
L 2356 481 
L 2356 0 
L 1766 0 
Q 1100 0 847 248 
Q 594 497 594 1153 
L 594 3053 
L 172 3053 
L 172 3500 
L 594 3500 
L 594 4494 
L 1172 4494 
z
" transform="scale(0.015625)"/>
      <path id="DejaVuSans-72" d="M 2631 2963 
Q 2534 3019 2420 3045 
Q 2306 3072 2169 3072 
Q 1681 3072 1420 2755 
Q 1159 2438 1159 1844 
L 1159 0 
L 581 0 
L 581 3500 
L 1159 3500 
L 1159 2956 
Q 1341 3275 1631 3429 
Q 1922 3584 2338 3584 
Q 2397 3584 2469 3576 
Q 2541 3569 2628 3553 
L 2631 2963 
z
" transform="scale(0.015625)"/>
      <path id="DejaVuSans-61" d="M 2194 1759 
Q 1497 1759 1228 1600 
Q 959 1441 959 1056 
Q 959 750 1161 570 
Q 1363 391 1709 391 
Q 2188 391 2477 730 
Q 2766 1069 2766 1631 
L 2766 1759 
L 2194 1759 
z
M 3341 1997 
L 3341 0 
L 2766 0 
L 2766 531 
Q 2569 213 2275 61 
Q 1981 -91 1556 -91 
Q 1019 -91 701 211 
Q 384 513 384 1019 
Q 384 1609 779 1909 
Q 1175 2209 1959 2209 
L 2766 2209 
L 2766 2266 
Q 2766 2663 2505 2880 
Q 2244 3097 1772 3097 
Q 1472 3097 1187 3025 
Q 903 2953 641 2809 
L 641 3341 
Q 956 3463 1253 3523 
Q 1550 3584 1831 3584 
Q 2591 3584 2966 3190 
Q 3341 2797 3341 1997 
z
" transform="scale(0.015625)"/>
      <path id="DejaVuSans-69" d="M 603 3500 
L 1178 3500 
L 1178 0 
L 603 0 
L 603 3500 
z
M 603 4863 
L 1178 4863 
L 1178 4134 
L 603 4134 
L 603 4863 
z
" transform="scale(0.015625)"/>
      <path id="DejaVuSans-6e" d="M 3513 2113 
L 3513 0 
L 2938 0 
L 2938 2094 
Q 2938 2591 2744 2837 
Q 2550 3084 2163 3084 
Q 1697 3084 1428 2787 
Q 1159 2491 1159 1978 
L 1159 0 
L 581 0 
L 581 3500 
L 1159 3500 
L 1159 2956 
Q 1366 3272 1645 3428 
Q 1925 3584 2291 3584 
Q 2894 3584 3203 3211 
Q 3513 2838 3513 2113 
z
" transform="scale(0.015625)"/>
      <path id="DejaVuSans-20" transform="scale(0.015625)"/>
      <path id="DejaVuSans-6c" d="M 603 4863 
L 1178 4863 
L 1178 0 
L 603 0 
L 603 4863 
z
" transform="scale(0.015625)"/>
      <path id="DejaVuSans-6f" d="M 1959 3097 
Q 1497 3097 1228 2736 
Q 959 2375 959 1747 
Q 959 1119 1226 758 
Q 1494 397 1959 397 
Q 2419 397 2687 759 
Q 2956 1122 2956 1747 
Q 2956 2369 2687 2733 
Q 2419 3097 1959 3097 
z
M 1959 3584 
Q 2709 3584 3137 3096 
Q 3566 2609 3566 1747 
Q 3566 888 3137 398 
Q 2709 -91 1959 -91 
Q 1206 -91 779 398 
Q 353 888 353 1747 
Q 353 2609 779 3096 
Q 1206 3584 1959 3584 
z
" transform="scale(0.015625)"/>
      <path id="DejaVuSans-73" d="M 2834 3397 
L 2834 2853 
Q 2591 2978 2328 3040 
Q 2066 3103 1784 3103 
Q 1356 3103 1142 2972 
Q 928 2841 928 2578 
Q 928 2378 1081 2264 
Q 1234 2150 1697 2047 
L 1894 2003 
Q 2506 1872 2764 1633 
Q 3022 1394 3022 966 
Q 3022 478 2636 193 
Q 2250 -91 1575 -91 
Q 1294 -91 989 -36 
Q 684 19 347 128 
L 347 722 
Q 666 556 975 473 
Q 1284 391 1588 391 
Q 1994 391 2212 530 
Q 2431 669 2431 922 
Q 2431 1156 2273 1281 
Q 2116 1406 1581 1522 
L 1381 1569 
Q 847 1681 609 1914 
Q 372 2147 372 2553 
Q 372 3047 722 3315 
Q 1072 3584 1716 3584 
Q 2034 3584 2315 3537 
Q 2597 3491 2834 3397 
z
" transform="scale(0.015625)"/>
     </defs>
     <use xlink:href="#DejaVuSans-74"/>
     <use xlink:href="#DejaVuSans-72" x="39.208984"/>
     <use xlink:href="#DejaVuSans-61" x="80.322266"/>
     <use xlink:href="#DejaVuSans-69" x="141.601562"/>
     <use xlink:href="#DejaVuSans-6e" x="169.384766"/>
     <use xlink:href="#DejaVuSans-20" x="232.763672"/>
     <use xlink:href="#DejaVuSans-6c" x="264.550781"/>
     <use xlink:href="#DejaVuSans-6f" x="292.333984"/>
     <use xlink:href="#DejaVuSans-73" x="353.515625"/>
     <use xlink:href="#DejaVuSans-73" x="405.615234"/>
    </g>
   </g>
  </g>
  <g id="axes_2">
   <g id="patch_7">
    <path d="M 22.903125 292.318125 
L 301.903125 292.318125 
L 301.903125 166.318125 
L 22.903125 166.318125 
z
" style="fill: #ffffff"/>
   </g>
   <g id="matplotlib.axis_3">
    <g id="xtick_7">
     <g id="line2d_16">
      <g>
       <use xlink:href="#me7700822d3" x="28.373713" y="292.318125" style="stroke: #000000; stroke-width: 0.8"/>
      </g>
     </g>
     <g id="text_12">
      <!-- 3000 -->
      <g transform="translate(15.648713 306.916563) scale(0.1 -0.1)">
       <use xlink:href="#DejaVuSans-33"/>
       <use xlink:href="#DejaVuSans-30" x="63.623047"/>
       <use xlink:href="#DejaVuSans-30" x="127.246094"/>
       <use xlink:href="#DejaVuSans-30" x="190.869141"/>
      </g>
     </g>
    </g>
    <g id="xtick_8">
     <g id="line2d_17">
      <g>
       <use xlink:href="#me7700822d3" x="83.079596" y="292.318125" style="stroke: #000000; stroke-width: 0.8"/>
      </g>
     </g>
     <g id="text_13">
      <!-- 3100 -->
      <g transform="translate(70.354596 306.916563) scale(0.1 -0.1)">
       <use xlink:href="#DejaVuSans-33"/>
       <use xlink:href="#DejaVuSans-31" x="63.623047"/>
       <use xlink:href="#DejaVuSans-30" x="127.246094"/>
       <use xlink:href="#DejaVuSans-30" x="190.869141"/>
      </g>
     </g>
    </g>
    <g id="xtick_9">
     <g id="line2d_18">
      <g>
       <use xlink:href="#me7700822d3" x="137.785478" y="292.318125" style="stroke: #000000; stroke-width: 0.8"/>
      </g>
     </g>
     <g id="text_14">
      <!-- 3200 -->
      <g transform="translate(125.060478 306.916563) scale(0.1 -0.1)">
       <use xlink:href="#DejaVuSans-33"/>
       <use xlink:href="#DejaVuSans-32" x="63.623047"/>
       <use xlink:href="#DejaVuSans-30" x="127.246094"/>
       <use xlink:href="#DejaVuSans-30" x="190.869141"/>
      </g>
     </g>
    </g>
    <g id="xtick_10">
     <g id="line2d_19">
      <g>
       <use xlink:href="#me7700822d3" x="192.49136" y="292.318125" style="stroke: #000000; stroke-width: 0.8"/>
      </g>
     </g>
     <g id="text_15">
      <!-- 3300 -->
      <g transform="translate(179.76636 306.916563) scale(0.1 -0.1)">
       <use xlink:href="#DejaVuSans-33"/>
       <use xlink:href="#DejaVuSans-33" x="63.623047"/>
       <use xlink:href="#DejaVuSans-30" x="127.246094"/>
       <use xlink:href="#DejaVuSans-30" x="190.869141"/>
      </g>
     </g>
    </g>
    <g id="xtick_11">
     <g id="line2d_20">
      <g>
       <use xlink:href="#me7700822d3" x="247.197243" y="292.318125" style="stroke: #000000; stroke-width: 0.8"/>
      </g>
     </g>
     <g id="text_16">
      <!-- 3400 -->
      <g transform="translate(234.472243 306.916563) scale(0.1 -0.1)">
       <use xlink:href="#DejaVuSans-33"/>
       <use xlink:href="#DejaVuSans-34" x="63.623047"/>
       <use xlink:href="#DejaVuSans-30" x="127.246094"/>
       <use xlink:href="#DejaVuSans-30" x="190.869141"/>
      </g>
     </g>
    </g>
    <g id="xtick_12">
     <g id="line2d_21">
      <g>
       <use xlink:href="#me7700822d3" x="301.903125" y="292.318125" style="stroke: #000000; stroke-width: 0.8"/>
      </g>
     </g>
     <g id="text_17">
      <!-- 3500 -->
      <g transform="translate(289.178125 306.916563) scale(0.1 -0.1)">
       <use xlink:href="#DejaVuSans-33"/>
       <use xlink:href="#DejaVuSans-35" x="63.623047"/>
       <use xlink:href="#DejaVuSans-30" x="127.246094"/>
       <use xlink:href="#DejaVuSans-30" x="190.869141"/>
      </g>
     </g>
    </g>
   </g>
   <g id="matplotlib.axis_4">
    <g id="ytick_5">
     <g id="line2d_22">
      <g>
       <use xlink:href="#m9354780acd" x="22.903125" y="277.281244" style="stroke: #000000; stroke-width: 0.8"/>
      </g>
     </g>
     <g id="text_18">
      <!-- 0.2 -->
      <g transform="translate(0 281.080462) scale(0.1 -0.1)">
       <use xlink:href="#DejaVuSans-30"/>
       <use xlink:href="#DejaVuSans-2e" x="63.623047"/>
       <use xlink:href="#DejaVuSans-32" x="95.410156"/>
      </g>
     </g>
    </g>
    <g id="ytick_6">
     <g id="line2d_23">
      <g>
       <use xlink:href="#m9354780acd" x="22.903125" y="250.644316" style="stroke: #000000; stroke-width: 0.8"/>
      </g>
     </g>
     <g id="text_19">
      <!-- 0.4 -->
      <g transform="translate(0 254.443535) scale(0.1 -0.1)">
       <use xlink:href="#DejaVuSans-30"/>
       <use xlink:href="#DejaVuSans-2e" x="63.623047"/>
       <use xlink:href="#DejaVuSans-34" x="95.410156"/>
      </g>
     </g>
    </g>
    <g id="ytick_7">
     <g id="line2d_24">
      <g>
       <use xlink:href="#m9354780acd" x="22.903125" y="224.007389" style="stroke: #000000; stroke-width: 0.8"/>
      </g>
     </g>
     <g id="text_20">
      <!-- 0.6 -->
      <g transform="translate(0 227.806607) scale(0.1 -0.1)">
       <defs>
        <path id="DejaVuSans-36" d="M 2113 2584 
Q 1688 2584 1439 2293 
Q 1191 2003 1191 1497 
Q 1191 994 1439 701 
Q 1688 409 2113 409 
Q 2538 409 2786 701 
Q 3034 994 3034 1497 
Q 3034 2003 2786 2293 
Q 2538 2584 2113 2584 
z
M 3366 4563 
L 3366 3988 
Q 3128 4100 2886 4159 
Q 2644 4219 2406 4219 
Q 1781 4219 1451 3797 
Q 1122 3375 1075 2522 
Q 1259 2794 1537 2939 
Q 1816 3084 2150 3084 
Q 2853 3084 3261 2657 
Q 3669 2231 3669 1497 
Q 3669 778 3244 343 
Q 2819 -91 2113 -91 
Q 1303 -91 875 529 
Q 447 1150 447 2328 
Q 447 3434 972 4092 
Q 1497 4750 2381 4750 
Q 2619 4750 2861 4703 
Q 3103 4656 3366 4563 
z
" transform="scale(0.015625)"/>
       </defs>
       <use xlink:href="#DejaVuSans-30"/>
       <use xlink:href="#DejaVuSans-2e" x="63.623047"/>
       <use xlink:href="#DejaVuSans-36" x="95.410156"/>
      </g>
     </g>
    </g>
    <g id="ytick_8">
     <g id="line2d_25">
      <g>
       <use xlink:href="#m9354780acd" x="22.903125" y="197.370461" style="stroke: #000000; stroke-width: 0.8"/>
      </g>
     </g>
     <g id="text_21">
      <!-- 0.8 -->
      <g transform="translate(0 201.16968) scale(0.1 -0.1)">
       <defs>
        <path id="DejaVuSans-38" d="M 2034 2216 
Q 1584 2216 1326 1975 
Q 1069 1734 1069 1313 
Q 1069 891 1326 650 
Q 1584 409 2034 409 
Q 2484 409 2743 651 
Q 3003 894 3003 1313 
Q 3003 1734 2745 1975 
Q 2488 2216 2034 2216 
z
M 1403 2484 
Q 997 2584 770 2862 
Q 544 3141 544 3541 
Q 544 4100 942 4425 
Q 1341 4750 2034 4750 
Q 2731 4750 3128 4425 
Q 3525 4100 3525 3541 
Q 3525 3141 3298 2862 
Q 3072 2584 2669 2484 
Q 3125 2378 3379 2068 
Q 3634 1759 3634 1313 
Q 3634 634 3220 271 
Q 2806 -91 2034 -91 
Q 1263 -91 848 271 
Q 434 634 434 1313 
Q 434 1759 690 2068 
Q 947 2378 1403 2484 
z
M 1172 3481 
Q 1172 3119 1398 2916 
Q 1625 2713 2034 2713 
Q 2441 2713 2670 2916 
Q 2900 3119 2900 3481 
Q 2900 3844 2670 4047 
Q 2441 4250 2034 4250 
Q 1625 4250 1398 4047 
Q 1172 3844 1172 3481 
z
" transform="scale(0.015625)"/>
       </defs>
       <use xlink:href="#DejaVuSans-30"/>
       <use xlink:href="#DejaVuSans-2e" x="63.623047"/>
       <use xlink:href="#DejaVuSans-38" x="95.410156"/>
      </g>
     </g>
    </g>
    <g id="ytick_9">
     <g id="line2d_26">
      <g>
       <use xlink:href="#m9354780acd" x="22.903125" y="170.733534" style="stroke: #000000; stroke-width: 0.8"/>
      </g>
     </g>
     <g id="text_22">
      <!-- 1.0 -->
      <g transform="translate(0 174.532752) scale(0.1 -0.1)">
       <use xlink:href="#DejaVuSans-31"/>
       <use xlink:href="#DejaVuSans-2e" x="63.623047"/>
       <use xlink:href="#DejaVuSans-30" x="95.410156"/>
      </g>
     </g>
    </g>
   </g>
   <g id="line2d_27">
    <path d="M 22.356066 215.743289 
L 22.903125 214.471363 
L 23.450184 215.257156 
L 23.997243 213.685578 
L 24.544301 214.591241 
L 25.09136 213.41256 
L 25.638419 215.197228 
L 26.185478 214.224986 
L 26.732537 216.216085 
L 27.279596 215.923078 
L 27.826654 217.334831 
L 28.373713 217.35482 
L 28.920772 217.627846 
L 30.01489 216.122856 
L 30.561949 214.810992 
L 31.109007 213.998566 
L 31.656066 212.953068 
L 32.203125 212.833198 
L 32.750184 212.10068 
L 33.844301 212.114 
L 34.39136 212.466951 
L 34.938419 212.466935 
L 35.485478 212.95306 
L 36.032537 212.993022 
L 36.579596 213.945299 
L 37.126654 213.79878 
L 37.673713 215.00411 
L 38.220772 214.564592 
L 38.767831 215.869811 
L 39.31489 214.977477 
L 39.861949 216.27602 
L 40.409007 214.964148 
L 40.956066 215.923078 
L 41.503125 214.604554 
L 42.050184 215.290457 
L 42.597243 213.758826 
L 43.144301 214.964148 
L 43.69136 213.119553 
L 44.238419 214.085135 
L 44.785478 212.64674 
L 45.332537 213.738861 
L 45.879596 212.147294 
L 46.426654 213.525762 
L 46.973713 211.867608 
L 47.520772 213.405891 
L 48.067831 211.79436 
L 48.61489 213.206105 
L 49.161949 212.120653 
L 49.709007 213.1928 
L 50.256066 212.267164 
L 50.803125 213.112884 
L 51.350184 212.320431 
L 51.897243 212.966389 
L 52.444301 212.094027 
L 52.99136 212.44697 
L 53.538419 211.90757 
L 54.085478 212.393695 
L 54.632537 212.114 
L 55.726654 213.512441 
L 56.273713 214.504672 
L 57.367831 217.681129 
L 57.91489 218.999662 
L 58.461949 219.971896 
L 59.556066 218.673345 
L 60.650184 214.504672 
L 61.197243 213.312663 
L 61.744301 211.667837 
L 62.29136 211.547975 
L 62.838419 210.768843 
L 63.385478 211.141758 
L 63.932537 210.795468 
L 64.479596 211.308235 
L 65.026654 211.268273 
L 65.573713 211.867608 
L 66.120772 212.060734 
L 67.761949 213.525762 
L 68.856066 214.244959 
L 69.950184 214.604562 
L 70.497243 214.198345 
L 71.044301 214.597901 
L 71.59136 214.171695 
L 72.138419 214.784351 
L 72.685478 214.065154 
L 73.232537 215.057377 
L 73.779596 214.291573 
L 74.326654 214.584581 
L 74.873713 213.945291 
L 75.420772 214.284921 
L 75.967831 213.359277 
L 76.51489 214.191684 
L 77.061949 212.959728 
L 77.609007 214.69779 
L 78.156066 214.14507 
L 78.703125 216.282681 
L 79.250184 216.981905 
L 79.797243 218.939719 
L 80.344301 219.19944 
L 80.89136 219.965236 
L 81.438419 218.373685 
L 81.985478 217.361481 
L 82.532537 215.137285 
L 83.626654 212.407016 
L 84.173713 211.461399 
L 84.720772 211.288254 
L 85.267831 210.842082 
L 85.81489 211.627875 
L 86.361949 211.847635 
L 86.909007 213.18614 
L 87.456066 213.738861 
L 88.003125 215.789895 
L 88.550184 216.362589 
L 89.097243 217.34816 
L 89.644301 216.702218 
L 90.19136 216.822081 
L 90.738419 214.904221 
L 91.285478 214.537958 
L 91.832537 212.793244 
L 92.379596 213.046297 
L 92.926654 211.860947 
L 93.473713 212.726648 
L 94.020772 212.000799 
L 94.567831 213.352625 
L 95.11489 212.52687 
L 95.661949 213.865375 
L 96.209007 213.126213 
L 96.756066 214.165043 
L 97.303125 213.292674 
L 97.850184 213.965272 
L 98.397243 212.586805 
L 98.944301 213.226094 
L 99.49136 212.080707 
L 100.038419 212.520217 
L 100.585478 211.587929 
L 101.132537 212.107348 
L 101.679596 211.68115 
L 102.226654 212.260504 
L 102.773713 212.233863 
L 103.320772 212.560172 
L 103.867831 213.079591 
L 104.41489 213.179488 
L 104.961949 213.798788 
L 105.509007 213.286029 
L 106.056066 214.244959 
L 106.603125 212.746629 
L 107.150184 213.692238 
L 107.697243 211.834314 
L 108.244301 212.620099 
L 108.79136 210.981926 
L 109.338419 211.987486 
L 109.885478 210.322671 
L 110.432537 211.874268 
L 110.979596 210.788816 
L 111.526654 212.926427 
L 112.073713 212.746637 
L 112.620772 215.117312 
L 113.167831 215.743281 
L 113.71489 217.408087 
L 114.809007 217.707755 
L 115.356066 215.889792 
L 115.903125 215.11732 
L 116.450184 212.500236 
L 116.997243 212.100688 
L 117.544301 210.515789 
L 118.638419 209.78994 
L 119.185478 209.456963 
L 119.732537 209.536887 
L 120.279596 209.090716 
L 120.826654 209.303807 
L 121.373713 209.010799 
L 121.920772 209.483604 
L 122.467831 209.337108 
L 123.01489 209.956409 
L 123.561949 209.889821 
L 125.203125 211.714436 
L 125.750184 212.893133 
L 126.297243 213.266048 
L 126.844301 215.283805 
L 127.39136 214.604562 
L 127.938419 216.92197 
L 128.485478 215.583456 
L 129.032537 217.048484 
L 129.579596 215.73662 
L 130.126654 215.95638 
L 130.673713 215.456942 
L 131.220772 215.250511 
L 131.767831 214.69113 
L 132.31489 214.717764 
L 132.861949 214.098455 
L 133.409007 213.938631 
L 133.956066 213.41922 
L 134.503125 213.159507 
L 135.050184 213.059617 
L 135.597243 212.460282 
L 136.144301 212.946408 
L 136.69136 211.847635 
L 137.238419 213.179488 
L 137.785478 211.827654 
L 138.332537 213.452514 
L 138.879596 212.120661 
L 139.426654 213.845402 
L 139.973713 212.819877 
L 140.520772 213.818769 
L 141.067831 213.086251 
L 141.61489 213.812109 
L 142.161949 212.946408 
L 142.709007 213.232754 
L 143.256066 212.014111 
L 143.803125 212.147302 
L 144.350184 211.228319 
L 144.897243 211.215006 
L 145.444301 210.688926 
L 145.99136 210.795476 
L 146.538419 210.562396 
L 147.085478 210.469167 
L 147.632537 211.115117 
L 148.179596 210.742201 
L 148.726654 211.734425 
L 149.273713 211.488032 
L 149.820772 212.520217 
L 150.367831 212.640088 
L 150.91489 213.459174 
L 152.009007 214.324867 
L 152.556066 214.258272 
L 153.103125 214.398115 
L 153.650184 214.085143 
L 154.197243 213.312671 
L 154.744301 213.30601 
L 155.29136 212.200577 
L 155.838419 212.759942 
L 156.385478 211.434757 
L 156.932537 212.080707 
L 157.479596 210.981942 
L 158.026654 211.874276 
L 158.573713 211.001923 
L 159.120772 211.734433 
L 159.667831 211.448086 
L 160.21489 212.020764 
L 160.761949 212.014119 
L 161.309007 212.626767 
L 161.856066 212.566832 
L 162.403125 213.1928 
L 162.950184 212.953068 
L 163.497243 213.472487 
L 164.044301 213.052957 
L 164.59136 213.232754 
L 165.138419 212.906454 
L 166.232537 212.600134 
L 166.779596 212.273825 
L 167.326654 212.287137 
L 167.873713 211.88092 
L 168.420772 212.080707 
L 169.51489 211.767726 
L 170.061949 211.940863 
L 170.609007 211.547967 
L 171.156066 211.448078 
L 172.250184 210.755522 
L 172.797243 210.662293 
L 173.344301 210.449194 
L 173.89136 210.622339 
L 174.438419 210.589037 
L 175.532537 211.401471 
L 177.173713 213.359277 
L 177.720772 213.405891 
L 178.267831 213.931971 
L 178.81489 213.359285 
L 179.361949 213.552395 
L 179.909007 212.307118 
L 180.456066 212.739969 
L 181.003125 210.948632 
L 181.550184 212.160615 
L 182.097243 210.309351 
L 182.644301 211.974165 
L 183.19136 210.908686 
L 183.738419 212.673373 
L 184.285478 212.260504 
L 184.832537 213.79878 
L 185.379596 213.79212 
L 185.926654 214.77103 
L 186.473713 213.792135 
L 187.020772 214.378134 
L 187.567831 213.099564 
L 188.11489 212.706675 
L 188.661949 211.654517 
L 189.756066 210.768843 
L 190.850184 210.668953 
L 191.397243 211.441425 
L 191.944301 211.7877 
L 192.49136 212.899801 
L 193.038419 212.793244 
L 193.585478 214.557931 
L 194.132537 213.898677 
L 194.679596 215.956396 
L 195.226654 214.051833 
L 195.773713 216.042948 
L 196.320772 214.098455 
L 196.867831 215.929738 
L 197.41489 213.951952 
L 197.961949 215.010771 
L 198.509007 214.0252 
L 199.056066 215.183908 
L 199.603125 214.45805 
L 200.150184 214.870927 
L 200.697243 213.885348 
L 201.244301 214.251619 
L 201.79136 212.879812 
L 202.338419 212.606794 
L 202.885478 211.767718 
L 203.432537 211.468059 
L 203.979596 211.421444 
L 204.526654 210.915338 
L 205.073713 211.334876 
L 205.620772 211.215006 
L 206.167831 211.821001 
L 206.71489 211.734417 
L 207.261949 212.75995 
L 207.809007 212.220542 
L 208.356066 212.986354 
L 208.903125 212.260504 
L 209.450184 212.726648 
L 209.997243 211.621223 
L 210.544301 211.874268 
L 211.09136 210.755522 
L 211.638419 210.915338 
L 212.185478 210.209454 
L 212.732537 210.582377 
L 213.279596 210.182828 
L 213.826654 210.802136 
L 214.373713 210.775495 
L 214.920772 211.694471 
L 215.467831 212.167275 
L 216.01489 212.946408 
L 217.109007 214.045181 
L 217.656066 213.785475 
L 218.203125 213.91865 
L 218.750184 212.367054 
L 219.297243 212.420336 
L 219.844301 210.4159 
L 220.39136 210.762174 
L 220.938419 209.203917 
L 221.485478 209.576833 
L 222.032537 208.504701 
L 222.579596 208.671178 
L 223.126654 208.011908 
L 223.673713 208.298262 
L 224.220772 207.845423 
L 224.767831 208.52469 
L 225.31489 208.045209 
L 225.861949 209.084055 
L 226.409007 208.498041 
L 226.956066 209.55686 
L 227.503125 209.270513 
L 228.050184 210.589045 
L 228.597243 210.475835 
L 229.144301 211.634536 
L 229.69136 211.56128 
L 230.238419 212.42032 
L 230.785478 212.120669 
L 231.332537 212.473595 
L 231.879596 212.067386 
L 232.973713 212.33376 
L 233.520772 212.120661 
L 234.067831 213.745505 
L 234.61489 214.684462 
L 235.161949 217.474675 
L 235.709007 219.059581 
L 236.256066 220.045152 
L 236.803125 219.052928 
L 237.350184 217.561251 
L 237.897243 215.097331 
L 238.99136 211.761058 
L 239.538419 210.449202 
L 240.085478 210.329324 
L 240.632537 209.490272 
L 241.179596 210.016352 
L 241.726654 209.756638 
L 242.273713 210.475827 
L 242.820772 210.462507 
L 243.367831 211.035208 
L 243.91489 210.755522 
L 244.461949 211.128437 
L 245.009007 210.569064 
L 245.556066 210.862071 
L 246.103125 210.089599 
L 246.650184 209.969737 
L 247.197243 209.170624 
L 247.744301 209.070735 
L 248.29136 208.458087 
L 249.932537 207.998603 
L 250.479596 208.358198 
L 251.026654 207.912026 
L 251.573713 208.524674 
L 252.120772 208.404812 
L 252.667831 209.110689 
L 253.21489 209.357089 
L 255.403125 211.880936 
L 255.950184 212.200569 
L 256.497243 212.71998 
L 257.044301 212.593465 
L 257.59136 212.666729 
L 258.138419 212.054065 
L 258.685478 211.774387 
L 259.232537 211.148418 
L 259.779596 211.348197 
L 260.326654 210.662285 
L 260.873713 211.228319 
L 261.420772 210.635644 
L 261.967831 211.055189 
L 262.51489 210.682274 
L 263.061949 210.83543 
L 264.703125 210.316011 
L 265.797243 209.410348 
L 266.344301 209.297138 
L 266.89136 208.817681 
L 267.438419 208.90425 
L 267.985478 208.584601 
L 268.532537 208.890945 
L 269.079596 208.70448 
L 269.626654 209.3371 
L 270.173713 209.603466 
L 270.720772 210.655633 
L 271.267831 211.028548 
L 271.81489 212.87982 
L 272.361949 212.993022 
L 272.909007 215.050733 
L 273.456066 214.924202 
L 274.003125 215.443621 
L 274.550184 214.298226 
L 275.097243 214.011879 
L 275.644301 211.987478 
L 276.19136 211.834322 
L 276.738419 209.783279 
L 277.285478 210.808797 
L 277.832537 208.637892 
L 278.379596 210.569056 
L 278.926654 209.010799 
L 279.473713 210.895365 
L 280.020772 209.683382 
L 280.567831 211.341536 
L 281.11489 210.549091 
L 281.661949 212.127313 
L 282.209007 211.401463 
L 282.756066 212.553511 
L 283.303125 212.153962 
L 283.850184 212.87982 
L 284.397243 212.360393 
L 284.944301 212.686702 
L 286.038419 212.027432 
L 287.132537 211.647856 
L 287.679596 211.661169 
L 288.226654 211.414784 
L 288.773713 211.614555 
L 289.320772 211.621223 
L 289.867831 211.501361 
L 290.41489 211.814333 
L 290.961949 211.434765 
L 291.509007 211.694479 
L 292.056066 211.221674 
L 292.603125 211.06185 
L 293.150184 210.216122 
L 293.697243 210.102912 
L 294.244301 209.223898 
L 294.79136 209.303807 
L 295.338419 208.637876 
L 295.885478 208.90425 
L 296.432537 208.777727 
L 296.979596 209.010799 
L 297.526654 209.430337 
L 298.620772 211.088483 
L 299.167831 212.806564 
L 299.71489 213.572376 
L 300.261949 215.643392 
L 300.809007 215.283789 
L 301.356066 216.715531 
L 301.903125 214.664489 
L 302.450184 214.078474 
L 302.450184 214.078474 
" clip-path="url(#p7ecf61510b)" style="fill: none; stroke: #1f77b4; stroke-width: 1.5; stroke-linecap: square"/>
   </g>
   <g id="line2d_28">
    <path d="M 28.373713 217.35482 
L 28.920772 238.89743 
L 29.467831 254.666492 
L 30.01489 250.27806 
L 30.561949 265.201399 
L 31.109007 266.23358 
L 31.656066 268.397828 
L 32.203125 274.804011 
L 32.750184 266.806274 
L 33.297243 274.437752 
L 33.844301 270.948315 
L 34.39136 273.292366 
L 34.938419 277.148058 
L 35.485478 267.23246 
L 36.032537 266.659766 
L 36.579596 248.513361 
L 37.126654 253.061617 
L 37.673713 255.858494 
L 38.220772 266.726362 
L 38.767831 261.09931 
L 39.31489 250.6643 
L 39.861949 250.238106 
L 40.409007 262.850689 
L 40.956066 259.993876 
L 41.503125 254.007234 
L 42.050184 253.134869 
L 42.597243 248.380182 
L 43.144301 257.596552 
L 43.69136 240.775335 
L 44.238419 232.730982 
L 44.785478 232.07172 
L 45.879596 231.432431 
L 49.161949 229.394709 
L 50.256066 228.915244 
L 51.897243 228.129451 
L 52.444301 228.036222 
L 54.632537 227.030678 
L 63.385478 224.253778 
L 66.120772 223.614497 
L 67.21489 223.281536 
L 68.309007 223.048464 
L 77.609007 220.777654 
L 78.156066 220.677773 
L 79.250184 220.32483 
L 84.720772 219.286 
L 86.909007 218.939711 
L 100.585478 216.555707 
L 101.132537 216.788787 
L 101.679596 216.608982 
L 102.226654 217.328179 
L 102.773713 217.368133 
L 103.320772 220.171667 
L 104.41489 230.007357 
L 104.961949 240.975114 
L 106.603125 218.30709 
L 107.150184 216.981905 
L 107.697243 216.535734 
L 108.244301 217.627846 
L 108.79136 217.421408 
L 109.885478 225.545669 
L 110.979596 238.631064 
L 111.526654 232.151628 
L 112.073713 220.364792 
L 112.620772 218.273796 
L 113.167831 218.060689 
L 113.71489 218.426952 
L 115.903125 228.668851 
L 116.450184 227.277079 
L 116.997243 224.493519 
L 118.09136 217.66114 
L 118.638419 217.248263 
L 119.185478 216.562367 
L 119.732537 216.795439 
L 120.279596 216.542402 
L 120.826654 216.715531 
L 121.373713 216.489119 
L 121.920772 216.768806 
L 122.467831 216.708871 
L 123.01489 217.061813 
L 123.561949 216.762161 
L 124.109007 217.181683 
L 124.656066 216.901989 
L 125.203125 217.181683 
L 125.750184 216.842054 
L 126.297243 217.028511 
L 126.844301 216.668925 
L 127.39136 216.768814 
L 127.938419 216.276036 
L 128.485478 216.415864 
L 129.032537 215.876472 
L 129.579596 215.916426 
L 130.126654 215.436961 
L 130.673713 215.463594 
L 131.220772 215.157282 
L 131.767831 215.137293 
L 132.861949 214.744405 
L 136.69136 214.138409 
L 137.238419 214.284905 
L 137.785478 214.178364 
L 138.332537 214.391463 
L 138.879596 214.398115 
L 139.426654 214.850946 
L 139.973713 214.88424 
L 140.520772 215.297118 
L 141.067831 216.102875 
L 141.61489 216.628963 
L 142.709007 219.452477 
L 143.256066 221.909729 
L 143.803125 222.968548 
L 144.350184 225.392513 
L 144.897243 222.775438 
L 145.444301 223.168326 
L 145.99136 219.632274 
L 146.538419 219.812072 
L 147.085478 217.534618 
L 147.632537 218.759913 
L 148.179596 217.055153 
L 148.726654 218.466906 
L 149.273713 216.828733 
L 149.820772 218.373685 
L 150.367831 217.068473 
L 150.91489 218.113964 
L 151.461949 217.607865 
L 152.556066 218.713299 
L 153.103125 218.32041 
L 153.650184 219.925274 
L 154.197243 219.379229 
L 154.744301 220.284884 
L 155.29136 220.857578 
L 155.838419 220.458021 
L 156.385478 220.870891 
L 156.932537 219.459145 
L 157.479596 218.819848 
L 158.026654 217.201648 
L 158.573713 216.242735 
L 159.120772 215.550171 
L 159.667831 215.696682 
L 160.21489 216.602329 
L 160.761949 219.039608 
L 161.309007 224.067329 
L 161.856066 227.070632 
L 162.403125 231.499026 
L 164.044301 216.216085 
L 164.59136 216.535726 
L 165.138419 216.70221 
L 166.232537 219.732164 
L 166.779596 220.231602 
L 167.326654 221.357008 
L 167.873713 220.43138 
L 168.420772 220.085106 
L 168.967831 218.786555 
L 169.51489 217.88756 
L 170.061949 216.502432 
L 170.609007 216.38257 
L 171.156066 215.456942 
L 171.703125 216.062929 
L 172.250184 215.456926 
L 172.797243 216.522421 
L 173.344301 215.889792 
L 173.89136 217.248271 
L 174.438419 216.522413 
L 174.985478 218.473566 
L 175.532537 217.840946 
L 176.079596 220.43138 
L 176.626654 219.472458 
L 177.173713 221.217173 
L 177.720772 219.925282 
L 178.267831 220.098427 
L 178.81489 218.480235 
L 179.361949 219.479118 
L 179.909007 218.253815 
L 180.456066 219.845366 
L 181.003125 218.280448 
L 181.550184 219.985225 
L 182.097243 218.367017 
L 182.644301 220.224949 
L 183.19136 219.006314 
L 183.738419 220.204968 
L 184.285478 219.512412 
L 185.379596 219.086222 
L 185.926654 217.940835 
L 186.473713 218.640043 
L 187.020772 218.133953 
L 187.567831 220.218289 
L 188.11489 221.803187 
L 188.661949 221.490207 
L 189.209007 223.268215 
L 189.756066 219.685549 
L 190.303125 219.545698 
L 190.850184 216.509092 
L 191.397243 216.209433 
L 191.944301 214.604562 
L 192.49136 214.517985 
L 193.038419 213.279369 
L 193.585478 213.885356 
L 194.132537 212.420336 
L 194.679596 213.139526 
L 195.226654 211.987478 
L 195.773713 213.126205 
L 196.320772 212.120669 
L 196.867831 213.61233 
L 197.41489 212.913106 
L 197.961949 215.037404 
L 198.509007 214.537966 
L 199.056066 217.454702 
L 199.603125 216.762146 
L 200.150184 219.452485 
L 200.697243 217.308198 
L 201.244301 218.20054 
L 201.79136 215.716647 
L 202.338419 216.569028 
L 202.885478 216.042948 
L 203.432537 217.641159 
L 203.979596 218.693326 
L 204.526654 220.078446 
L 205.073713 220.351472 
L 205.620772 219.15947 
L 207.261949 213.672257 
L 207.809007 213.312655 
L 208.356066 213.379258 
L 209.450184 216.096223 
L 211.09136 225.066212 
L 211.638419 222.815392 
L 212.185478 221.277108 
L 212.732537 217.155034 
L 213.279596 215.070706 
L 213.826654 216.402551 
L 214.373713 215.896445 
L 214.920772 218.839821 
L 215.467831 219.079554 
L 216.01489 221.350356 
L 216.561949 222.196083 
L 217.109007 223.907504 
L 217.656066 221.157238 
L 218.203125 219.585668 
L 218.750184 216.156158 
L 219.297243 214.617866 
L 219.844301 214.444729 
L 220.39136 213.166167 
L 220.938419 214.910874 
L 221.485478 214.331527 
L 222.032537 216.782127 
L 222.579596 216.941943 
L 223.126654 220.85091 
L 223.673713 219.232718 
L 224.220772 221.583428 
L 224.767831 217.594545 
L 225.31489 217.075126 
L 225.861949 216.369249 
L 226.956066 217.707755 
L 227.503125 220.298205 
L 228.050184 218.593437 
L 228.597243 220.870891 
L 229.144301 217.754369 
L 229.69136 219.598973 
L 230.238419 216.822073 
L 230.785478 218.833169 
L 231.332537 216.688898 
L 231.879596 218.180559 
L 232.426654 217.228298 
L 232.973713 217.048492 
L 233.520772 216.515761 
L 234.61489 216.122856 
L 235.161949 217.594553 
L 235.709007 218.593437 
L 236.256066 221.217173 
L 236.803125 222.868658 
L 237.350184 221.416951 
L 237.897243 221.257127 
L 238.444301 217.141721 
L 238.99136 217.880892 
L 239.538419 215.803216 
L 240.085478 216.668917 
L 240.632537 215.769914 
L 241.179596 216.795439 
L 241.726654 216.016307 
L 242.273713 216.589009 
L 242.820772 215.663373 
L 243.367831 215.670033 
L 243.91489 214.431417 
L 244.461949 214.791011 
L 245.009007 213.246067 
L 245.556066 214.404775 
L 246.103125 213.059617 
L 246.650184 214.291573 
L 247.197243 212.786591 
L 247.744301 214.158383 
L 248.29136 212.407016 
L 248.838419 213.645616 
L 249.385478 211.974149 
L 249.932537 213.006343 
L 250.479596 211.714452 
L 251.026654 212.373714 
L 251.573713 211.441418 
L 252.120772 212.426989 
L 252.667831 211.614562 
L 253.21489 213.339304 
L 253.761949 212.64008 
L 254.309007 214.544619 
L 254.856066 214.045189 
L 255.403125 216.362597 
L 255.950184 215.436961 
L 256.497243 216.14283 
L 257.59136 214.138409 
L 258.138419 213.592349 
L 258.685478 212.34042 
L 259.232537 212.526878 
L 259.779596 212.273817 
L 260.873713 214.0252 
L 261.420772 215.370373 
L 261.967831 217.794323 
L 262.51489 218.347036 
L 263.061949 220.611193 
L 263.609007 219.925282 
L 264.703125 221.004066 
L 265.250184 219.172783 
L 265.797243 219.552366 
L 266.344301 218.879783 
L 266.89136 217.081786 
L 267.438419 218.913077 
L 267.985478 217.754369 
L 268.532537 219.998545 
L 269.079596 220.211629 
L 269.626654 222.176102 
L 270.173713 219.419175 
L 270.720772 220.085106 
L 271.267831 217.914201 
L 271.81489 219.605641 
L 272.361949 217.927506 
L 272.909007 217.388114 
L 274.003125 214.491344 
L 274.550184 213.479147 
L 275.097243 212.719988 
L 275.644301 213.046289 
L 276.19136 213.805448 
L 276.738419 214.810992 
L 277.285478 216.562359 
L 277.832537 217.661148 
L 278.379596 218.060697 
L 278.926654 217.867579 
L 279.473713 215.923086 
L 280.020772 214.644508 
L 280.567831 214.03852 
L 281.11489 214.071822 
L 281.661949 216.655588 
L 282.756066 220.484663 
L 283.303125 219.545714 
L 283.850184 217.814296 
L 284.397243 213.099564 
L 284.944301 213.212766 
L 285.49136 211.301582 
L 286.038419 212.240523 
L 286.585478 213.852063 
L 287.132537 215.916426 
L 288.226654 224.473538 
L 288.773713 223.994065 
L 289.320772 222.136148 
L 289.867831 217.168363 
L 290.41489 213.399231 
L 290.961949 213.652284 
L 291.509007 212.853171 
L 292.056066 213.792128 
L 292.603125 214.138417 
L 293.150184 213.832082 
L 293.697243 214.018547 
L 294.244301 213.272716 
L 295.885478 211.647864 
L 296.979596 211.361517 
L 297.526654 212.054065 
L 298.073713 211.414776 
L 298.620772 213.026316 
L 299.167831 211.954176 
L 299.71489 214.551279 
L 300.261949 213.166175 
L 300.809007 215.343732 
L 301.356066 213.479147 
L 301.903125 214.944183 
L 302.450184 213.026316 
L 302.450184 213.026316 
" clip-path="url(#p7ecf61510b)" style="fill: none; stroke: #ff0000; stroke-width: 1.5; stroke-linecap: square"/>
   </g>
   <g id="line2d_29">
    <path d="M 28.373713 217.35482 
L 29.467831 219.112848 
L 30.01489 216.575688 
L 30.561949 215.097347 
L 31.109007 212.959728 
L 31.656066 211.994138 
L 32.750184 211.388143 
L 33.297243 211.328208 
L 33.844301 211.561288 
L 34.938419 212.247175 
L 35.485478 212.986362 
L 36.032537 212.986362 
L 36.579596 214.091787 
L 37.126654 213.705559 
L 37.673713 214.930863 
L 38.220772 214.098455 
L 38.767831 215.323751 
L 39.31489 214.244951 
L 39.861949 215.530198 
L 40.409007 214.03852 
L 40.956066 215.496888 
L 41.503125 213.971925 
L 42.050184 215.217209 
L 42.597243 213.459166 
L 43.144301 214.498004 
L 43.69136 212.806564 
L 44.238419 213.865375 
L 44.785478 212.726648 
L 45.332537 213.519101 
L 45.879596 212.853179 
L 46.426654 213.445846 
L 46.973713 212.973041 
L 47.520772 213.83875 
L 48.067831 213.752181 
L 49.709007 217.288233 
L 50.256066 217.854266 
L 50.803125 217.421424 
L 51.350184 216.442505 
L 51.897243 213.905337 
L 52.444301 213.306002 
L 52.99136 211.095136 
L 53.538419 211.547959 
L 54.085478 210.642312 
L 54.632537 211.321555 
L 55.179596 211.328216 
L 55.726654 212.247183 
L 56.273713 212.919766 
L 56.820772 214.950836 
L 57.367831 214.977477 
L 57.91489 217.088447 
L 58.461949 215.463594 
L 59.009007 216.628971 
L 59.556066 214.764378 
L 60.103125 215.450281 
L 60.650184 215.330411 
L 61.744301 215.949719 
L 62.29136 215.796563 
L 62.838419 215.257156 
L 63.932537 213.599017 
L 64.479596 213.379258 
L 65.026654 212.726648 
L 65.573713 214.098455 
L 66.120772 214.105116 
L 66.667831 216.569036 
L 67.21489 216.542394 
L 67.761949 217.155034 
L 68.309007 215.983021 
L 68.856066 214.324875 
L 69.403125 213.845402 
L 69.950184 213.585697 
L 71.044301 215.490236 
L 71.59136 218.160586 
L 72.138419 218.213861 
L 72.685478 219.885328 
L 73.232537 216.662256 
L 73.779596 215.23053 
L 74.326654 212.646748 
L 74.873713 211.801028 
L 75.420772 211.274941 
L 75.967831 211.481388 
L 76.51489 211.874268 
L 77.061949 211.514673 
L 77.609007 212.626767 
L 78.156066 211.900901 
L 78.703125 213.319323 
L 79.250184 212.333752 
L 79.797243 214.011879 
L 80.344301 212.806564 
L 80.89136 214.711095 
L 81.438419 213.585697 
L 81.985478 215.277137 
L 82.532537 213.652284 
L 83.079596 214.444729 
L 83.626654 212.400347 
L 84.173713 213.106232 
L 84.720772 211.374822 
L 85.267831 211.840982 
L 85.81489 210.735541 
L 86.361949 210.655633 
L 87.456066 210.256076 
L 88.003125 210.682266 
L 88.550184 210.429213 
L 89.097243 211.767718 
L 89.644301 211.468059 
L 90.19136 213.958612 
L 90.738419 213.379266 
L 91.285478 215.923078 
L 91.832537 214.571268 
L 92.379596 215.563483 
L 92.926654 212.906446 
L 93.473713 213.17948 
L 94.020772 211.108456 
L 94.567831 211.168391 
L 95.11489 210.875384 
L 95.661949 210.915338 
L 96.209007 211.461399 
L 96.756066 211.175052 
L 97.303125 211.914214 
L 97.850184 211.308235 
L 98.397243 212.133981 
L 98.944301 211.261612 
L 99.49136 212.500236 
L 100.038419 211.840974 
L 100.585478 213.392571 
L 101.132537 213.705567 
L 101.679596 215.097339 
L 102.773713 214.404775 
L 103.867831 211.547975 
L 104.41489 210.728889 
L 104.961949 209.463623 
L 105.509007 209.337108 
L 106.056066 208.631232 
L 106.603125 208.731113 
L 107.150184 208.244988 
L 107.697243 208.577957 
L 108.244301 208.318236 
L 108.79136 209.004139 
L 109.338419 208.744442 
L 109.885478 209.450318 
L 110.432537 209.483596 
L 110.979596 210.222782 
L 111.526654 210.355965 
L 112.073713 211.268281 
L 112.620772 211.281601 
L 113.167831 211.934203 
L 113.71489 211.980818 
L 114.261949 212.380374 
L 114.809007 212.307118 
L 115.356066 213.232754 
L 115.903125 213.685578 
L 116.450184 214.371489 
L 116.997243 214.764378 
L 117.544301 214.424756 
L 118.09136 214.298226 
L 118.638419 212.633419 
L 119.185478 212.553511 
L 119.732537 210.822101 
L 120.279596 211.201693 
L 120.826654 209.730005 
L 121.373713 211.141758 
L 121.920772 210.202801 
L 122.467831 212.087359 
L 123.01489 211.108456 
L 123.561949 212.75329 
L 124.109007 211.294922 
L 124.656066 212.433649 
L 125.203125 210.602358 
L 125.750184 211.148426 
L 126.297243 209.476944 
L 126.844301 210.349297 
L 127.39136 208.870956 
L 127.938419 210.276065 
L 128.485478 208.937552 
L 129.032537 210.142882 
L 129.579596 209.3371 
L 130.126654 210.236103 
L 130.673713 209.849867 
L 131.220772 210.628999 
L 131.767831 210.515789 
L 132.31489 211.814333 
L 132.861949 211.867616 
L 133.409007 213.572384 
L 133.956066 213.698899 
L 134.503125 214.524645 
L 135.050184 214.544626 
L 135.597243 213.4858 
L 136.144301 213.698899 
L 136.69136 211.807681 
L 137.238419 212.919774 
L 137.785478 212.040745 
L 138.332537 212.919774 
L 138.879596 214.351508 
L 139.426654 214.191684 
L 139.973713 214.418096 
L 140.520772 212.620099 
L 141.067831 211.940863 
L 141.61489 210.735549 
L 142.161949 210.435873 
L 143.256066 212.127329 
L 144.350184 216.276028 
L 144.897243 216.835393 
L 145.444301 217.181675 
L 145.99136 214.751065 
L 146.538419 214.218318 
L 147.085478 211.947524 
L 147.632537 213.279369 
L 148.179596 212.067386 
L 148.726654 213.872036 
L 149.273713 212.380374 
L 149.820772 213.332636 
L 150.367831 210.855411 
L 150.91489 211.494692 
L 151.461949 209.157303 
L 152.009007 209.456971 
L 152.556066 208.49138 
L 153.103125 208.398144 
L 153.650184 208.444766 
L 154.197243 208.2583 
L 154.744301 208.70448 
L 155.29136 208.957525 
L 156.932537 211.814333 
L 157.479596 213.172819 
L 158.026654 213.412552 
L 158.573713 213.49912 
L 159.667831 212.859839 
L 160.21489 211.761058 
L 160.761949 211.461399 
L 161.856066 210.575717 
L 162.403125 211.001899 
L 162.950184 210.509121 
L 163.497243 211.401471 
L 164.044301 210.442542 
L 164.59136 211.521342 
L 165.138419 210.316003 
L 165.685478 211.168391 
L 166.232537 210.056298 
L 166.779596 210.382599 
L 167.326654 209.636768 
L 167.873713 209.896473 
L 168.420772 209.650097 
L 168.967831 209.603466 
L 169.51489 209.690043 
L 170.061949 209.929783 
L 171.156066 211.26162 
L 171.703125 212.533538 
L 172.250184 212.466943 
L 172.797243 213.805448 
L 173.344301 212.546851 
L 173.89136 212.766602 
L 174.438419 210.116233 
L 174.985478 210.582377 
L 175.532537 208.737773 
L 176.079596 208.624571 
L 176.626654 208.05187 
L 177.173713 208.531335 
L 177.720772 208.464739 
L 178.267831 209.117349 
L 178.81489 209.237211 
L 179.361949 210.422553 
L 179.909007 210.016352 
L 180.456066 210.722236 
L 181.003125 209.816565 
L 181.550184 209.616787 
L 182.097243 208.970853 
L 182.644301 208.138438 
L 183.19136 208.138446 
L 183.738419 207.39926 
L 184.285478 207.798825 
L 184.832537 207.925347 
L 185.379596 208.48472 
L 185.926654 209.769959 
L 186.473713 210.309351 
L 187.020772 211.814341 
L 187.567831 212.30045 
L 188.11489 212.22055 
L 188.661949 212.273825 
L 189.209007 210.855419 
L 189.756066 210.10958 
L 190.850184 209.077395 
L 191.397243 209.257192 
L 191.944301 209.596814 
L 192.49136 209.696703 
L 193.038419 210.082931 
L 193.585478 211.428097 
L 194.132537 210.988594 
L 194.679596 211.26162 
L 195.773713 209.836538 
L 196.320772 209.616787 
L 196.867831 208.777727 
L 197.41489 209.403696 
L 197.961949 208.830994 
L 198.509007 209.703355 
L 199.056066 209.690043 
L 199.603125 210.069626 
L 200.150184 210.755522 
L 200.697243 210.422561 
L 201.244301 211.621215 
L 201.79136 210.84209 
L 202.338419 211.920882 
L 202.885478 211.461399 
L 203.432537 212.22721 
L 203.979596 211.614562 
L 204.526654 211.661185 
L 205.620772 209.903134 
L 206.167831 209.117349 
L 206.71489 208.051878 
L 207.809007 206.67341 
L 208.356066 206.600154 
L 208.903125 206.307147 
L 209.450184 206.240552 
L 209.997243 206.77996 
L 210.544301 206.580189 
L 211.09136 207.885385 
L 211.638419 207.892053 
L 212.185478 209.183936 
L 212.732537 209.290486 
L 213.279596 209.936428 
L 213.826654 210.023004 
L 214.373713 209.816573 
L 214.920772 210.056298 
L 215.467831 209.610135 
L 216.01489 210.442542 
L 216.561949 210.462515 
L 217.109007 211.627875 
L 217.656066 211.421444 
L 218.203125 212.64008 
L 218.750184 211.294922 
L 219.297243 212.180596 
L 219.844301 210.582385 
L 220.39136 211.135098 
L 220.938419 210.216114 
L 221.485478 210.802136 
L 222.032537 210.462515 
L 222.579596 210.888697 
L 223.126654 210.788816 
L 223.673713 211.274941 
L 224.220772 210.72222 
L 224.767831 210.768843 
L 225.31489 210.622331 
L 225.861949 210.082939 
L 226.409007 210.542431 
L 226.956066 209.67007 
L 227.503125 209.483612 
L 228.597243 208.145099 
L 229.144301 207.892045 
L 229.69136 207.199489 
L 230.238419 206.906482 
L 230.785478 206.746666 
L 231.332537 206.74665 
L 231.879596 206.953105 
L 232.973713 208.151759 
L 233.520772 209.343753 
L 234.067831 209.829886 
L 234.61489 211.547967 
L 235.161949 210.509129 
L 235.709007 211.361509 
L 236.256066 209.696703 
L 237.897243 208.804361 
L 238.99136 210.10958 
L 239.538419 210.40924 
L 240.085478 211.195025 
L 241.179596 210.682266 
L 241.726654 210.335992 
L 242.273713 209.363734 
L 242.820772 210.542423 
L 243.367831 209.223898 
L 243.91489 210.589037 
L 244.461949 209.090708 
L 245.009007 209.963069 
L 245.556066 208.338224 
L 246.103125 208.378171 
L 246.650184 207.419241 
L 247.197243 207.09294 
L 247.744301 207.452543 
L 248.29136 207.40592 
L 248.838419 208.151751 
L 249.932537 209.117349 
L 250.479596 210.089599 
L 251.026654 209.516898 
L 251.573713 209.829886 
L 252.667831 207.705596 
L 253.21489 207.119581 
L 253.761949 206.140671 
L 254.309007 206.180625 
L 254.856066 205.721141 
L 255.403125 205.94756 
L 255.950184 206.713364 
L 256.497243 207.852099 
L 257.044301 209.803245 
L 257.59136 211.028548 
L 258.138419 212.6534 
L 258.685478 213.279361 
L 259.232537 212.713328 
L 260.326654 209.636768 
L 261.420772 207.552432 
L 261.967831 208.045201 
L 262.51489 206.946444 
L 263.061949 208.138446 
L 263.609007 206.919803 
L 264.156066 207.565752 
L 264.703125 206.233899 
L 265.250184 206.919795 
L 265.797243 205.900946 
L 266.344301 206.347109 
L 266.89136 205.920919 
L 267.438419 206.300479 
L 267.985478 206.347101 
L 268.532537 207.026345 
L 269.079596 207.365974 
L 269.626654 208.631224 
L 270.173713 208.817673 
L 270.720772 210.755522 
L 271.267831 209.390375 
L 271.81489 211.68781 
L 272.361949 209.104028 
L 272.909007 210.642312 
L 273.456066 209.183936 
L 274.003125 209.297154 
L 274.550184 208.384831 
L 275.097243 208.324888 
L 275.644301 207.052986 
L 276.19136 207.239444 
L 276.738419 205.854324 
L 277.285478 206.220587 
L 277.832537 205.254997 
L 278.379596 205.667858 
L 278.926654 205.041898 
L 279.473713 206.040781 
L 280.020772 205.354886 
L 280.567831 206.400384 
L 281.11489 206.813245 
L 281.661949 207.525798 
L 282.209007 208.684499 
L 282.756066 208.91091 
L 283.303125 210.482488 
L 283.850184 209.816565 
L 284.397243 211.421444 
L 284.944301 209.86984 
L 285.49136 210.782155 
L 286.038419 208.731105 
L 286.585478 210.28937 
L 287.132537 208.111797 
L 287.679596 209.530226 
L 288.226654 208.025236 
L 288.773713 208.930891 
L 289.320772 208.05853 
L 289.867831 208.251648 
L 290.41489 208.70448 
L 290.961949 208.910926 
L 291.509007 209.323788 
L 292.603125 209.809913 
L 293.150184 209.25054 
L 293.697243 209.150643 
L 294.244301 208.597922 
L 295.338419 208.451426 
L 295.885478 208.531335 
L 296.432537 208.451426 
L 296.979596 208.657873 
L 297.526654 208.637884 
L 298.073713 208.777727 
L 299.167831 207.792156 
L 299.71489 206.959757 
L 300.809007 205.561324 
L 301.356066 205.667874 
L 301.903125 204.961981 
L 302.450184 206.00748 
L 302.450184 206.00748 
" clip-path="url(#p7ecf61510b)" style="fill: none; stroke: #ffff00; stroke-width: 1.5; stroke-linecap: square"/>
   </g>
   <g id="line2d_30">
    <path d="M 28.373713 217.35482 
L 29.467831 215.889792 
L 31.109007 211.468059 
L 31.656066 210.169515 
L 32.750184 209.583493 
L 34.39136 209.210578 
L 37.126654 208.870972 
L 38.767831 208.724445 
L 40.409007 208.624563 
L 40.956066 208.631232 
L 41.503125 208.498041 
L 42.050184 208.571297 
L 42.597243 208.411472 
L 43.144301 208.870956 
L 43.69136 208.664525 
L 44.238419 209.47696 
L 44.785478 209.903142 
L 45.879596 214.664489 
L 46.973713 222.555678 
L 47.520772 224.373641 
L 48.067831 224.300393 
L 49.161949 215.630079 
L 49.709007 212.120661 
L 50.256066 210.362633 
L 50.803125 209.496925 
L 51.897243 208.724453 
L 52.444301 208.724461 
L 52.99136 208.218346 
L 53.538419 208.537995 
L 54.085478 208.131786 
L 54.632537 208.284942 
L 55.179596 208.05187 
L 55.726654 208.198381 
L 56.273713 208.05187 
L 56.820772 208.078511 
L 58.461949 207.792156 
L 59.009007 207.845439 
L 61.197243 207.545779 
L 61.744301 207.579073 
L 62.29136 207.405928 
L 62.838419 207.485836 
L 63.385478 207.352653 
L 63.932537 207.405928 
L 64.479596 207.292718 
L 65.026654 207.33268 
L 65.573713 207.179508 
L 66.120772 207.306023 
L 66.667831 207.159527 
L 67.21489 207.239444 
L 68.309007 207.152875 
L 68.856066 207.199489 
L 69.403125 207.086288 
L 71.59136 207.20615 
L 73.232537 207.705588 
L 73.779596 208.291602 
L 74.326654 208.531343 
L 74.873713 209.856519 
L 75.420772 210.369278 
L 75.967831 211.654509 
L 77.061949 213.49912 
L 77.609007 213.965272 
L 78.156066 213.685578 
L 78.703125 213.166159 
L 79.250184 212.200577 
L 79.797243 210.822117 
L 80.344301 210.102912 
L 80.89136 208.884269 
L 81.438419 208.471392 
L 81.985478 207.818798 
L 83.079596 207.545779 
L 83.626654 206.79328 
L 84.173713 207.379287 
L 84.720772 206.66675 
L 85.267831 207.359314 
L 85.81489 206.606815 
L 86.361949 207.66565 
L 86.909007 206.706712 
L 87.456066 207.918695 
L 88.003125 206.819906 
L 88.550184 208.211686 
L 89.097243 206.98639 
L 89.644301 208.737773 
L 90.19136 207.485836 
L 90.738419 209.230567 
L 91.285478 208.038549 
L 91.832537 209.656741 
L 92.379596 208.684499 
L 92.926654 209.983042 
L 93.473713 208.857643 
L 94.020772 209.86984 
L 94.567831 208.271629 
L 95.11489 209.483604 
L 95.661949 207.505817 
L 96.209007 208.837654 
L 96.756066 206.753318 
L 97.303125 208.111805 
L 97.850184 206.307155 
L 98.397243 207.459195 
L 98.944301 205.754427 
L 99.49136 206.919803 
L 100.038419 205.521362 
L 100.585478 206.586842 
L 101.132537 205.341573 
L 101.679596 206.280514 
L 102.226654 205.248336 
L 102.773713 206.140678 
L 103.320772 205.208374 
L 103.867831 205.994175 
L 104.41489 205.135134 
L 104.961949 205.920919 
L 105.509007 205.195054 
L 106.056066 205.834343 
L 106.603125 205.28163 
L 107.150184 205.854316 
L 107.697243 205.534675 
L 108.244301 205.867636 
L 108.79136 205.947553 
L 109.338419 206.300487 
L 109.885478 206.466964 
L 110.432537 206.999711 
L 110.979596 207.75887 
L 111.526654 208.158419 
L 112.073713 209.456963 
L 112.620772 209.630108 
L 113.167831 210.928659 
L 113.71489 210.349313 
L 114.261949 210.775495 
L 114.809007 209.270505 
L 115.356066 208.89759 
L 115.903125 207.425893 
L 116.450184 207.43257 
L 116.997243 205.887625 
L 117.544301 206.413697 
L 118.09136 205.135126 
L 118.638419 205.874297 
L 119.185478 204.74223 
L 119.732537 205.674534 
L 120.279596 204.589074 
L 120.826654 205.58795 
L 121.373713 204.54912 
L 121.920772 205.667866 
L 122.467831 204.66899 
L 123.01489 205.927579 
L 123.561949 204.768879 
L 124.109007 206.080735 
L 124.656066 204.875413 
L 125.203125 206.506926 
L 125.750184 205.294943 
L 126.297243 206.946444 
L 126.844301 205.741114 
L 127.39136 207.40592 
L 127.938419 206.273861 
L 128.485478 207.772183 
L 129.032537 206.746666 
L 129.579596 207.912034 
L 130.126654 206.759971 
L 130.673713 207.685607 
L 131.220772 206.713364 
L 131.767831 207.246104 
L 132.31489 206.640116 
L 132.861949 206.89983 
L 133.409007 206.460319 
L 133.956066 206.420357 
L 134.503125 206.700044 
L 135.050184 206.413705 
L 135.597243 207.092948 
L 136.144301 207.026345 
L 136.69136 207.925347 
L 137.238419 208.271629 
L 138.332537 209.510253 
L 139.426654 210.302698 
L 139.973713 210.269397 
L 141.067831 209.616787 
L 141.61489 208.498049 
L 142.161949 208.378171 
L 142.709007 206.853215 
L 143.256066 207.272745 
L 143.803125 205.59461 
L 144.350184 206.180633 
L 144.897243 204.868761 
L 145.444301 205.454775 
L 145.99136 204.369315 
L 146.538419 205.035237 
L 147.085478 204.162876 
L 147.632537 204.762219 
L 148.179596 204.00306 
L 148.726654 204.549112 
L 149.273713 204.016372 
L 149.820772 204.449231 
L 150.367831 204.096288 
L 150.91489 204.475864 
L 151.461949 204.44257 
L 152.556066 204.788852 
L 154.197243 205.894278 
L 154.744301 206.427017 
L 155.29136 206.586834 
L 155.838419 207.132902 
L 156.385478 207.033005 
L 156.932537 207.485836 
L 157.479596 206.833227 
L 158.026654 207.146215 
L 158.573713 205.89427 
L 159.120772 206.347109 
L 159.667831 204.728917 
L 160.21489 205.561316 
L 160.761949 204.136243 
L 161.309007 204.942008 
L 161.856066 203.876537 
L 162.403125 204.609047 
L 162.950184 204.023025 
L 163.497243 204.788844 
L 164.044301 204.529139 
L 164.59136 205.155099 
L 165.138419 205.354878 
L 165.685478 206.054094 
L 166.779596 206.973078 
L 167.326654 207.732229 
L 167.873713 207.645653 
L 168.420772 208.191721 
L 168.967831 207.658965 
L 169.51489 207.672294 
L 170.061949 207.0996 
L 170.609007 206.806593 
L 171.156066 206.027461 
L 171.703125 205.827698 
L 172.250184 205.155115 
L 172.797243 205.341557 
L 173.344301 204.642333 
L 173.89136 205.081867 
L 174.438419 204.276094 
L 174.985478 205.155107 
L 175.532537 204.049674 
L 176.079596 205.308263 
L 176.626654 204.062987 
L 177.173713 205.561324 
L 177.720772 204.429242 
L 178.267831 206.027461 
L 178.81489 205.195061 
L 179.361949 207.052986 
L 179.909007 206.700052 
L 180.456066 208.458079 
L 181.003125 207.958641 
L 181.550184 209.250532 
L 182.097243 208.171732 
L 182.644301 208.651197 
L 183.19136 206.819922 
L 183.738419 206.533567 
L 184.285478 205.361546 
L 184.832537 205.334905 
L 185.379596 204.389296 
L 185.926654 204.602403 
L 186.473713 204.948669 
L 187.020772 204.682311 
L 187.567831 206.060754 
L 188.11489 206.140663 
L 188.661949 207.619027 
L 189.209007 207.785496 
L 189.756066 208.824342 
L 190.303125 208.617895 
L 190.850184 208.771067 
L 191.397243 207.232783 
L 191.944301 207.112921 
L 192.49136 205.40816 
L 193.038419 205.627904 
L 193.585478 204.449223 
L 194.132537 204.77554 
L 194.679596 204.269433 
L 195.773713 204.808825 
L 196.320772 205.048558 
L 196.867831 205.548004 
L 197.41489 205.694499 
L 197.961949 206.147331 
L 199.056066 206.739998 
L 200.150184 206.919803 
L 201.244301 206.44699 
L 202.338419 205.847663 
L 203.979596 205.454767 
L 204.526654 205.115145 
L 205.073713 205.241676 
L 205.620772 204.808833 
L 206.167831 205.28163 
L 206.71489 204.622368 
L 207.261949 205.288282 
L 207.809007 204.42925 
L 208.356066 204.888742 
L 208.903125 203.996391 
L 209.450184 204.415929 
L 209.997243 203.69674 
L 210.544301 203.983079 
L 211.09136 203.337137 
L 211.638419 203.636813 
L 212.185478 203.150671 
L 212.732537 203.23058 
L 213.279596 203.137367 
L 214.920772 203.35045 
L 215.467831 203.71006 
L 216.01489 203.683419 
L 216.561949 204.402608 
L 217.109007 204.542468 
L 217.656066 205.155107 
L 218.203125 205.254989 
L 218.750184 205.82769 
L 219.297243 205.488069 
L 219.844301 205.974186 
L 220.39136 205.068539 
L 220.938419 205.581298 
L 221.485478 203.903163 
L 222.032537 205.075199 
L 222.579596 202.977542 
L 223.126654 204.482524 
L 223.673713 202.697848 
L 224.220772 204.395956 
L 224.767831 202.804397 
L 225.31489 204.668974 
L 225.861949 203.670106 
L 226.409007 205.048558 
L 226.956066 204.988623 
L 227.503125 206.060762 
L 228.597243 206.993051 
L 229.69136 206.899822 
L 230.238419 206.207266 
L 230.785478 205.854316 
L 231.332537 204.589066 
L 231.879596 204.748898 
L 232.426654 203.303843 
L 232.973713 203.936472 
L 233.520772 202.564665 
L 234.067831 203.690071 
L 234.61489 202.331601 
L 235.161949 203.89651 
L 235.709007 202.478096 
L 236.256066 204.589066 
L 236.803125 203.177313 
L 237.350184 205.548004 
L 237.897243 204.435902 
L 238.444301 206.460319 
L 238.99136 205.268317 
L 239.538419 206.953105 
L 240.085478 205.201714 
L 240.632537 206.700044 
L 241.179596 204.415929 
L 241.726654 205.667866 
L 242.273713 203.05079 
L 242.820772 204.655669 
L 243.367831 202.351574 
L 243.91489 203.789961 
L 244.461949 202.544684 
L 245.009007 203.636805 
L 245.556066 202.877637 
L 246.103125 203.7833 
L 246.650184 203.616832 
L 247.197243 204.289406 
L 247.744301 204.455891 
L 248.29136 205.248336 
L 248.838419 205.494729 
L 249.385478 205.980846 
L 249.932537 206.633456 
L 250.479596 206.313808 
L 251.026654 207.146215 
L 251.573713 206.267209 
L 252.120772 207.006364 
L 252.667831 205.521362 
L 253.21489 206.253872 
L 253.761949 204.402616 
L 254.309007 205.228363 
L 254.856066 203.456999 
L 255.403125 204.375983 
L 255.950184 202.571325 
L 256.497243 203.809942 
L 257.044301 201.892074 
L 257.59136 203.450339 
L 258.138419 201.758891 
L 258.685478 203.323816 
L 259.232537 201.465884 
L 259.779596 203.2439 
L 260.326654 201.66567 
L 260.873713 203.390412 
L 261.420772 201.885422 
L 261.967831 203.809926 
L 262.51489 202.657894 
L 263.061949 204.242792 
L 263.609007 203.303835 
L 264.156066 204.535799 
L 264.703125 203.883181 
L 265.250184 204.768871 
L 265.797243 204.122922 
L 266.344301 204.542452 
L 266.89136 204.216159 
L 267.438419 204.302719 
L 267.985478 204.229471 
L 269.079596 204.742238 
L 269.626654 205.188409 
L 270.173713 205.4814 
L 270.720772 205.354886 
L 271.267831 205.734461 
L 271.81489 205.048558 
L 272.361949 205.308263 
L 272.909007 204.535791 
L 273.456066 204.502513 
L 274.003125 203.969766 
L 274.550184 203.809942 
L 275.644301 203.257221 
L 276.19136 203.403725 
L 276.738419 203.030809 
L 277.285478 203.683419 
L 277.832537 203.250569 
L 278.379596 204.362654 
L 278.926654 204.302735 
L 279.473713 205.674518 
L 280.020772 205.374851 
L 280.567831 206.633456 
L 281.11489 206.307139 
L 281.661949 206.713372 
L 282.209007 205.834351 
L 282.756066 205.767755 
L 283.303125 204.34935 
L 283.850184 204.535791 
L 284.397243 203.27721 
L 284.944301 203.723357 
L 285.49136 202.464784 
L 286.038419 203.530255 
L 286.585478 202.471436 
L 287.132537 203.750007 
L 287.679596 202.884314 
L 288.226654 203.789953 
L 288.773713 202.984203 
L 289.320772 203.750007 
L 289.867831 202.671207 
L 290.41489 203.210607 
L 290.961949 201.945349 
L 291.509007 202.691196 
L 292.056066 201.405949 
L 292.603125 202.218375 
L 293.150184 201.119618 
L 293.697243 201.938697 
L 294.244301 201.106297 
L 294.79136 202.291623 
L 295.338419 201.472552 
L 295.885478 203.090744 
L 296.432537 202.564665 
L 296.979596 204.262773 
L 297.526654 204.482524 
L 298.073713 206.020808 
L 298.620772 206.074075 
L 299.167831 207.186177 
L 299.71489 206.347109 
L 300.261949 206.959757 
L 300.809007 204.788852 
L 301.356066 205.47474 
L 301.903125 203.210614 
L 302.450184 204.149555 
L 302.450184 204.149555 
" clip-path="url(#p7ecf61510b)" style="fill: none; stroke: #008000; stroke-width: 1.5; stroke-linecap: square"/>
   </g>
   <g id="line2d_31">
    <path d="M 28.373713 292.318125 
L 28.373713 166.318125 
" clip-path="url(#p7ecf61510b)" style="fill: none; stroke-dasharray: 1.5,2.475; stroke-dashoffset: 0; stroke: #1f77b4; stroke-width: 1.5"/>
   </g>
   <g id="patch_8">
    <path d="M 22.903125 292.318125 
L 22.903125 166.318125 
" style="fill: none; stroke: #000000; stroke-width: 0.8; stroke-linejoin: miter; stroke-linecap: square"/>
   </g>
   <g id="patch_9">
    <path d="M 301.903125 292.318125 
L 301.903125 166.318125 
" style="fill: none; stroke: #000000; stroke-width: 0.8; stroke-linejoin: miter; stroke-linecap: square"/>
   </g>
   <g id="patch_10">
    <path d="M 22.903125 292.318125 
L 301.903125 292.318125 
" style="fill: none; stroke: #000000; stroke-width: 0.8; stroke-linejoin: miter; stroke-linecap: square"/>
   </g>
   <g id="patch_11">
    <path d="M 22.903125 166.318125 
L 301.903125 166.318125 
" style="fill: none; stroke: #000000; stroke-width: 0.8; stroke-linejoin: miter; stroke-linecap: square"/>
   </g>
   <g id="text_23">
    <!-- train accuracy -->
    <g transform="translate(119.46 160.318125) scale(0.12 -0.12)">
     <defs>
      <path id="DejaVuSans-63" d="M 3122 3366 
L 3122 2828 
Q 2878 2963 2633 3030 
Q 2388 3097 2138 3097 
Q 1578 3097 1268 2742 
Q 959 2388 959 1747 
Q 959 1106 1268 751 
Q 1578 397 2138 397 
Q 2388 397 2633 464 
Q 2878 531 3122 666 
L 3122 134 
Q 2881 22 2623 -34 
Q 2366 -91 2075 -91 
Q 1284 -91 818 406 
Q 353 903 353 1747 
Q 353 2603 823 3093 
Q 1294 3584 2113 3584 
Q 2378 3584 2631 3529 
Q 2884 3475 3122 3366 
z
" transform="scale(0.015625)"/>
      <path id="DejaVuSans-75" d="M 544 1381 
L 544 3500 
L 1119 3500 
L 1119 1403 
Q 1119 906 1312 657 
Q 1506 409 1894 409 
Q 2359 409 2629 706 
Q 2900 1003 2900 1516 
L 2900 3500 
L 3475 3500 
L 3475 0 
L 2900 0 
L 2900 538 
Q 2691 219 2414 64 
Q 2138 -91 1772 -91 
Q 1169 -91 856 284 
Q 544 659 544 1381 
z
M 1991 3584 
L 1991 3584 
z
" transform="scale(0.015625)"/>
      <path id="DejaVuSans-79" d="M 2059 -325 
Q 1816 -950 1584 -1140 
Q 1353 -1331 966 -1331 
L 506 -1331 
L 506 -850 
L 844 -850 
Q 1081 -850 1212 -737 
Q 1344 -625 1503 -206 
L 1606 56 
L 191 3500 
L 800 3500 
L 1894 763 
L 2988 3500 
L 3597 3500 
L 2059 -325 
z
" transform="scale(0.015625)"/>
     </defs>
     <use xlink:href="#DejaVuSans-74"/>
     <use xlink:href="#DejaVuSans-72" x="39.208984"/>
     <use xlink:href="#DejaVuSans-61" x="80.322266"/>
     <use xlink:href="#DejaVuSans-69" x="141.601562"/>
     <use xlink:href="#DejaVuSans-6e" x="169.384766"/>
     <use xlink:href="#DejaVuSans-20" x="232.763672"/>
     <use xlink:href="#DejaVuSans-61" x="264.550781"/>
     <use xlink:href="#DejaVuSans-63" x="325.830078"/>
     <use xlink:href="#DejaVuSans-63" x="380.810547"/>
     <use xlink:href="#DejaVuSans-75" x="435.791016"/>
     <use xlink:href="#DejaVuSans-72" x="499.169922"/>
     <use xlink:href="#DejaVuSans-61" x="540.283203"/>
     <use xlink:href="#DejaVuSans-63" x="601.5625"/>
     <use xlink:href="#DejaVuSans-79" x="656.542969"/>
    </g>
   </g>
  </g>
 </g>
 <defs>
  <clipPath id="p882eede505">
   <rect x="22.903125" y="15.118125" width="279" height="126"/>
  </clipPath>
  <clipPath id="p7ecf61510b">
   <rect x="22.903125" y="166.318125" width="279" height="126"/>
  </clipPath>
 </defs>
</svg>
